G04*
G04 #@! TF.GenerationSoftware,Altium Limited,Altium Designer,20.0.2 (26)*
G04*
G04 Layer_Color=32768*
%FSLAX24Y24*%
%MOIN*%
G70*
G01*
G75*
%ADD77C,0.0050*%
%ADD80C,0.0059*%
%ADD81C,0.0039*%
%ADD83C,0.0020*%
%ADD84C,0.0030*%
D77*
X12150Y3700D02*
Y3900D01*
X12050Y3800D02*
X12250D01*
X11150Y3700D02*
Y3900D01*
X11050Y3800D02*
X11250D01*
X6250Y3600D02*
Y3800D01*
X6150Y3700D02*
X6350D01*
X24050Y11700D02*
X24250D01*
X24150Y11600D02*
Y11800D01*
X24050Y12700D02*
X24250D01*
X24150Y12600D02*
Y12800D01*
X24100Y6150D02*
X24300D01*
X24200Y6050D02*
Y6250D01*
X24100Y7300D02*
X24300D01*
X24200Y7200D02*
Y7400D01*
X5450Y3600D02*
Y3800D01*
X5350Y3700D02*
X5550D01*
X3250Y9100D02*
X3450D01*
X3350Y9000D02*
Y9200D01*
X3250Y8100D02*
X3450D01*
X3350Y8000D02*
Y8200D01*
X24085Y18050D02*
X24285D01*
X24185Y17950D02*
Y18150D01*
X24100Y17050D02*
X24300D01*
X24200Y16950D02*
Y17150D01*
X13615Y29546D02*
X13815D01*
X13715Y29446D02*
Y29646D01*
X7400Y12000D02*
X7600D01*
X7500Y11900D02*
Y12100D01*
X15050Y22000D02*
Y22200D01*
X14950Y22100D02*
X15150D01*
X3350Y18500D02*
Y18700D01*
X3250Y18600D02*
X3450D01*
X15850Y22000D02*
Y22200D01*
X15750Y22100D02*
X15950D01*
X4250Y18485D02*
Y18685D01*
X4150Y18585D02*
X4350D01*
X17050Y27950D02*
Y28150D01*
X16950Y28050D02*
X17150D01*
X18100Y27950D02*
Y28150D01*
X18000Y28050D02*
X18200D01*
D80*
X5200Y19950D02*
X9600D01*
X5200Y24350D02*
X9600D01*
X5200Y19950D02*
Y24350D01*
X9600Y19950D02*
Y24350D01*
D81*
X22000Y21492D02*
Y24208D01*
X18800Y21492D02*
Y24208D01*
Y21492D02*
X22000D01*
X18800Y24208D02*
X22000D01*
D83*
X22548Y25350D02*
G03*
X22548Y25350I-138J0D01*
G01*
X22538Y24450D02*
G03*
X22538Y24450I-138J0D01*
G01*
X13852Y30345D02*
G03*
X13852Y30345I-138J0D01*
G01*
X5038Y20400D02*
G03*
X5038Y20400I-138J0D01*
G01*
X8238Y19050D02*
G03*
X8238Y19050I-138J0D01*
G01*
X7538Y22150D02*
G03*
X7538Y22150I-138J0D01*
G01*
X20538Y22850D02*
G03*
X20538Y22850I-138J0D01*
G01*
X9138Y11700D02*
G03*
X9138Y11700I-138J0D01*
G01*
X5988Y11650D02*
G03*
X5988Y11650I-138J0D01*
G01*
X17338Y25400D02*
G03*
X17338Y25400I-138J0D01*
G01*
X20488Y20350D02*
G03*
X20488Y20350I-138J0D01*
G01*
X17838Y23300D02*
G03*
X17838Y23300I-138J0D01*
G01*
X20538Y25350D02*
G03*
X20538Y25350I-138J0D01*
G01*
X5838Y24800D02*
G03*
X5838Y24800I-138J0D01*
G01*
X10288Y23750D02*
G03*
X10288Y23750I-138J0D01*
G01*
X10788Y30000D02*
G03*
X10788Y30000I-138J0D01*
G01*
X22213Y25350D02*
X22607D01*
X22410Y25153D02*
Y25547D01*
X22203Y24450D02*
X22597D01*
X22400Y24253D02*
Y24647D01*
X13518Y30345D02*
X13911D01*
X13715Y30149D02*
Y30542D01*
X4761Y20539D02*
X5039Y20261D01*
X4761D02*
X5039Y20539D01*
X7903Y19050D02*
X8297D01*
X8100Y18853D02*
Y19247D01*
X7400Y21953D02*
Y22347D01*
X7203Y22150D02*
X7597D01*
X20400Y22653D02*
Y23047D01*
X20203Y22850D02*
X20597D01*
X9000Y11503D02*
Y11897D01*
X8803Y11700D02*
X9197D01*
X5850Y11453D02*
Y11847D01*
X5653Y11650D02*
X6047D01*
X17003Y25400D02*
X17397D01*
X17200Y25203D02*
Y25597D01*
X20350Y20153D02*
Y20547D01*
X20153Y20350D02*
X20547D01*
X17700Y23103D02*
Y23497D01*
X17503Y23300D02*
X17897D01*
X20400Y25153D02*
Y25547D01*
X20203Y25350D02*
X20597D01*
X5561Y24661D02*
X5839Y24939D01*
X5561D02*
X5839Y24661D01*
X10011Y23889D02*
X10289Y23611D01*
X10011D02*
X10289Y23889D01*
X10453Y30000D02*
X10847D01*
X10650Y29803D02*
Y30197D01*
D84*
X7400Y13600D02*
Y13800D01*
X7300Y13700D02*
X7500D01*
M02*
