G04*
G04 #@! TF.GenerationSoftware,Altium Limited,Altium Designer,20.0.2 (26)*
G04*
G04 Layer_Physical_Order=1*
G04 Layer_Color=255*
%FSLAX24Y24*%
%MOIN*%
G70*
G01*
G75*
%ADD13C,0.0100*%
%ADD17R,0.0315X0.0400*%
%ADD18R,0.0400X0.0315*%
%ADD19R,0.0350X0.0300*%
G04:AMPARAMS|DCode=20|XSize=35mil|YSize=30mil|CornerRadius=0mil|HoleSize=0mil|Usage=FLASHONLY|Rotation=135.000|XOffset=0mil|YOffset=0mil|HoleType=Round|Shape=Rectangle|*
%AMROTATEDRECTD20*
4,1,4,0.0230,-0.0018,0.0018,-0.0230,-0.0230,0.0018,-0.0018,0.0230,0.0230,-0.0018,0.0*
%
%ADD20ROTATEDRECTD20*%

%ADD21O,0.0118X0.0827*%
%ADD22O,0.0827X0.0118*%
%ADD23R,0.0669X0.0295*%
%ADD24R,0.0669X0.1220*%
%ADD25R,0.0300X0.0350*%
%ADD26R,0.0866X0.0866*%
%ADD27R,0.0500X0.0500*%
%ADD28R,0.2600X0.2362*%
G04:AMPARAMS|DCode=29|XSize=35mil|YSize=30mil|CornerRadius=0mil|HoleSize=0mil|Usage=FLASHONLY|Rotation=45.000|XOffset=0mil|YOffset=0mil|HoleType=Round|Shape=Rectangle|*
%AMROTATEDRECTD29*
4,1,4,-0.0018,-0.0230,-0.0230,-0.0018,0.0018,0.0230,0.0230,0.0018,-0.0018,-0.0230,0.0*
%
%ADD29ROTATEDRECTD29*%

%ADD51C,0.0070*%
%ADD52C,0.0500*%
%ADD53C,0.0300*%
%ADD54C,0.0150*%
%ADD55R,0.1173X0.4280*%
%ADD56R,0.0550X0.0550*%
%ADD57R,0.0600X0.0600*%
%ADD58R,0.1150X0.0950*%
%ADD59R,0.0900X0.0850*%
%ADD60R,0.3300X0.0700*%
%ADD61R,0.4200X0.0500*%
%ADD62R,0.2750X0.0500*%
%ADD63R,0.1900X0.0900*%
%ADD64R,0.1000X0.0800*%
%ADD65R,0.0450X0.1150*%
%ADD66R,0.1600X0.0650*%
%ADD67R,0.2150X0.0850*%
%ADD68R,0.0669X0.0669*%
%ADD69C,0.0669*%
%ADD70C,0.1378*%
%ADD71C,0.1575*%
%ADD72C,0.0591*%
%ADD73C,0.0236*%
%ADD74C,0.0984*%
%ADD75R,0.0669X0.0669*%
%ADD76C,0.0240*%
G36*
X16646Y30633D02*
X16586Y30572D01*
X16492Y30461D01*
X16458Y30413D01*
X16433Y30368D01*
X16416Y30328D01*
X16407Y30292D01*
X16407Y30260D01*
X16415Y30232D01*
X16432Y30209D01*
X16100Y30541D01*
X15768Y30209D01*
X15785Y30232D01*
X15793Y30260D01*
X15793Y30292D01*
X15784Y30328D01*
X15767Y30368D01*
X15742Y30413D01*
X15708Y30461D01*
X15665Y30514D01*
X15554Y30633D01*
X15767Y30846D01*
X15828Y30786D01*
X15939Y30692D01*
X15987Y30658D01*
X16032Y30633D01*
X16072Y30616D01*
X16100Y30609D01*
X16128Y30616D01*
X16168Y30633D01*
X16213Y30658D01*
X16261Y30692D01*
X16314Y30735D01*
X16433Y30846D01*
X16646Y30633D01*
D02*
G37*
G36*
X7110Y30597D02*
X7086Y30572D01*
X7064Y30547D01*
X7045Y30522D01*
X7029Y30498D01*
X7015Y30473D01*
X7004Y30449D01*
X6995Y30425D01*
X6989Y30401D01*
X6986Y30377D01*
X6985Y30353D01*
X6653Y30685D01*
X6677Y30686D01*
X6701Y30689D01*
X6725Y30695D01*
X6749Y30704D01*
X6773Y30715D01*
X6798Y30729D01*
X6823Y30745D01*
X6847Y30764D01*
X6872Y30786D01*
X6897Y30810D01*
X7110Y30597D01*
D02*
G37*
G36*
X12554Y30292D02*
X12528Y30266D01*
X12506Y30238D01*
X12486Y30210D01*
X12469Y30182D01*
X12454Y30154D01*
X12442Y30124D01*
X12433Y30095D01*
X12427Y30065D01*
X12423Y30034D01*
X12422Y30004D01*
X12234Y30386D01*
X12257Y30371D01*
X12279Y30358D01*
X12301Y30350D01*
X12322Y30346D01*
X12344Y30345D01*
X12365Y30348D01*
X12386Y30355D01*
X12407Y30366D01*
X12427Y30380D01*
X12448Y30398D01*
X12554Y30292D01*
D02*
G37*
G36*
X13201Y30197D02*
X13199Y30211D01*
X13195Y30223D01*
X13187Y30234D01*
X13177Y30244D01*
X13163Y30252D01*
X13147Y30259D01*
X13127Y30264D01*
X13105Y30267D01*
X13079Y30270D01*
X13051Y30270D01*
Y30420D01*
X13079Y30421D01*
X13105Y30423D01*
X13127Y30427D01*
X13147Y30432D01*
X13163Y30439D01*
X13177Y30447D01*
X13187Y30457D01*
X13195Y30468D01*
X13199Y30480D01*
X13201Y30494D01*
Y30197D01*
D02*
G37*
G36*
X14128Y30197D02*
X14122Y30195D01*
X14117Y30191D01*
X14112Y30186D01*
X14108Y30180D01*
X14105Y30172D01*
X14103Y30163D01*
X14101Y30152D01*
X14100Y30140D01*
X14100Y30127D01*
X14030D01*
X14029Y30140D01*
X14028Y30152D01*
X14026Y30163D01*
X14024Y30172D01*
X14021Y30180D01*
X14017Y30186D01*
X14012Y30191D01*
X14007Y30195D01*
X14001Y30197D01*
X13995Y30198D01*
X14135D01*
X14128Y30197D01*
D02*
G37*
G36*
X18296Y30023D02*
X18207Y29920D01*
X18185Y29890D01*
X18167Y29861D01*
X18153Y29835D01*
X18143Y29810D01*
X18137Y29787D01*
X18135Y29766D01*
X18065D01*
X18063Y29787D01*
X18057Y29810D01*
X18047Y29835D01*
X18033Y29861D01*
X18015Y29890D01*
X17993Y29920D01*
X17937Y29987D01*
X17904Y30023D01*
X17866Y30061D01*
X18334D01*
X18296Y30023D01*
D02*
G37*
G36*
X17296D02*
X17207Y29920D01*
X17185Y29890D01*
X17167Y29861D01*
X17153Y29835D01*
X17143Y29810D01*
X17137Y29787D01*
X17135Y29766D01*
X17065D01*
X17063Y29787D01*
X17057Y29810D01*
X17047Y29835D01*
X17033Y29861D01*
X17015Y29890D01*
X16993Y29920D01*
X16937Y29987D01*
X16904Y30023D01*
X16866Y30061D01*
X17334D01*
X17296Y30023D01*
D02*
G37*
G36*
X14100Y29759D02*
X14101Y29747D01*
X14103Y29737D01*
X14105Y29728D01*
X14108Y29720D01*
X14112Y29714D01*
X14117Y29709D01*
X14122Y29705D01*
X14128Y29703D01*
X14135Y29702D01*
X13995D01*
X14001Y29703D01*
X14007Y29705D01*
X14012Y29709D01*
X14017Y29714D01*
X14021Y29720D01*
X14024Y29728D01*
X14026Y29737D01*
X14028Y29747D01*
X14029Y29759D01*
X14030Y29772D01*
X14100D01*
X14100Y29759D01*
D02*
G37*
G36*
X13486Y29389D02*
X13473Y29385D01*
X13462Y29377D01*
X13452Y29367D01*
X13444Y29353D01*
X13437Y29337D01*
X13432Y29317D01*
X13428Y29294D01*
X13426Y29269D01*
X13425Y29240D01*
X13275D01*
X13274Y29269D01*
X13272Y29294D01*
X13268Y29317D01*
X13263Y29337D01*
X13256Y29353D01*
X13248Y29367D01*
X13238Y29377D01*
X13227Y29385D01*
X13214Y29389D01*
X13200Y29391D01*
X13500D01*
X13486Y29389D01*
D02*
G37*
G36*
X13425Y29102D02*
X13428Y29053D01*
X13429Y29047D01*
X13431Y29042D01*
X13432Y29038D01*
X13434Y29036D01*
X13266D01*
X13268Y29038D01*
X13269Y29042D01*
X13271Y29047D01*
X13272Y29053D01*
X13273Y29060D01*
X13274Y29079D01*
X13275Y29116D01*
X13425D01*
X13425Y29102D01*
D02*
G37*
G36*
X18135Y28670D02*
X18136Y28658D01*
X18138Y28647D01*
X18141Y28638D01*
X18144Y28630D01*
X18148Y28624D01*
X18152Y28619D01*
X18157Y28615D01*
X18163Y28613D01*
X18170Y28613D01*
X18030D01*
X18037Y28613D01*
X18043Y28615D01*
X18048Y28619D01*
X18052Y28624D01*
X18056Y28630D01*
X18059Y28638D01*
X18062Y28647D01*
X18064Y28658D01*
X18065Y28670D01*
X18065Y28684D01*
X18135D01*
X18135Y28670D01*
D02*
G37*
G36*
X17135D02*
X17136Y28658D01*
X17138Y28647D01*
X17141Y28638D01*
X17144Y28630D01*
X17148Y28624D01*
X17152Y28619D01*
X17157Y28615D01*
X17163Y28613D01*
X17170Y28613D01*
X17030D01*
X17037Y28613D01*
X17043Y28615D01*
X17048Y28619D01*
X17052Y28624D01*
X17056Y28630D01*
X17059Y28638D01*
X17062Y28647D01*
X17064Y28658D01*
X17065Y28670D01*
X17065Y28684D01*
X17135D01*
X17135Y28670D01*
D02*
G37*
G36*
X18163Y27487D02*
X18157Y27485D01*
X18152Y27481D01*
X18148Y27476D01*
X18144Y27470D01*
X18141Y27462D01*
X18138Y27453D01*
X18136Y27442D01*
X18135Y27430D01*
X18135Y27416D01*
X18065D01*
X18065Y27430D01*
X18064Y27442D01*
X18062Y27453D01*
X18059Y27462D01*
X18056Y27470D01*
X18052Y27476D01*
X18048Y27481D01*
X18043Y27485D01*
X18037Y27487D01*
X18030Y27487D01*
X18170D01*
X18163Y27487D01*
D02*
G37*
G36*
X17113D02*
X17107Y27485D01*
X17102Y27481D01*
X17098Y27476D01*
X17094Y27470D01*
X17091Y27462D01*
X17088Y27453D01*
X17086Y27442D01*
X17085Y27430D01*
X17085Y27416D01*
X17015D01*
X17015Y27430D01*
X17014Y27442D01*
X17012Y27453D01*
X17009Y27462D01*
X17006Y27470D01*
X17002Y27476D01*
X16998Y27481D01*
X16993Y27485D01*
X16987Y27487D01*
X16980Y27487D01*
X17120D01*
X17113Y27487D01*
D02*
G37*
G36*
X7846Y27061D02*
X7883Y27028D01*
X7888Y27024D01*
X7892Y27022D01*
X7896Y27020D01*
X7899Y27020D01*
X7780Y26901D01*
X7780Y26904D01*
X7778Y26908D01*
X7776Y26912D01*
X7772Y26917D01*
X7768Y26923D01*
X7755Y26937D01*
X7730Y26964D01*
X7836Y27070D01*
X7846Y27061D01*
D02*
G37*
G36*
X22832Y25812D02*
X22831Y25808D01*
X22829Y25803D01*
X22828Y25797D01*
X22827Y25790D01*
X22826Y25771D01*
X22825Y25734D01*
X22675D01*
X22675Y25748D01*
X22672Y25797D01*
X22671Y25803D01*
X22669Y25808D01*
X22668Y25812D01*
X22666Y25814D01*
X22834D01*
X22832Y25812D01*
D02*
G37*
G36*
X22826Y25620D02*
X22828Y25594D01*
X22832Y25572D01*
X22837Y25552D01*
X22844Y25535D01*
X22852Y25522D01*
X22862Y25511D01*
X22873Y25504D01*
X22886Y25499D01*
X22900Y25498D01*
X22600D01*
X22614Y25499D01*
X22627Y25504D01*
X22638Y25511D01*
X22648Y25522D01*
X22656Y25535D01*
X22663Y25552D01*
X22668Y25572D01*
X22672Y25594D01*
X22674Y25620D01*
X22675Y25649D01*
X22825D01*
X22826Y25620D01*
D02*
G37*
G36*
X5620Y25596D02*
X5622Y25592D01*
X5624Y25588D01*
X5628Y25583D01*
X5632Y25577D01*
X5645Y25563D01*
X5670Y25536D01*
X5564Y25430D01*
X5554Y25439D01*
X5517Y25472D01*
X5512Y25476D01*
X5508Y25478D01*
X5504Y25480D01*
X5501Y25480D01*
X5620Y25599D01*
X5620Y25596D01*
D02*
G37*
G36*
X12414Y25166D02*
X12412Y25168D01*
X12408Y25169D01*
X12403Y25171D01*
X12397Y25172D01*
X12390Y25173D01*
X12371Y25174D01*
X12334Y25175D01*
Y25325D01*
X12348Y25325D01*
X12397Y25328D01*
X12403Y25329D01*
X12408Y25331D01*
X12412Y25332D01*
X12414Y25334D01*
Y25166D01*
D02*
G37*
G36*
X5862Y25344D02*
X5943Y25273D01*
X5950Y25269D01*
X5955Y25268D01*
X5958Y25269D01*
X5790Y25098D01*
X5799Y25110D01*
X5804Y25122D01*
X5807Y25135D01*
X5806Y25149D01*
X5802Y25165D01*
X5796Y25181D01*
X5785Y25199D01*
X5772Y25218D01*
X5755Y25237D01*
X5736Y25258D01*
X5842Y25364D01*
X5862Y25344D01*
D02*
G37*
G36*
X22886Y25200D02*
X22873Y25195D01*
X22862Y25188D01*
X22852Y25177D01*
X22844Y25164D01*
X22837Y25147D01*
X22832Y25128D01*
X22828Y25105D01*
X22826Y25080D01*
X22825Y25051D01*
X22675D01*
X22674Y25080D01*
X22672Y25105D01*
X22668Y25128D01*
X22663Y25147D01*
X22656Y25164D01*
X22648Y25177D01*
X22638Y25188D01*
X22627Y25195D01*
X22614Y25200D01*
X22600Y25201D01*
X22900D01*
X22886Y25200D01*
D02*
G37*
G36*
X15587Y24968D02*
X15582Y25003D01*
X15567Y25034D01*
X15542Y25061D01*
X15507Y25085D01*
X15462Y25105D01*
X15407Y25121D01*
X15342Y25134D01*
X15267Y25143D01*
X15182Y25148D01*
X15087Y25150D01*
Y25650D01*
X15182Y25652D01*
X15342Y25666D01*
X15407Y25679D01*
X15462Y25695D01*
X15507Y25715D01*
X15542Y25739D01*
X15567Y25766D01*
X15582Y25797D01*
X15587Y25832D01*
Y24968D01*
D02*
G37*
G36*
X6779Y25008D02*
X6771Y24998D01*
X6764Y24988D01*
X6758Y24977D01*
X6752Y24967D01*
X6748Y24957D01*
X6745Y24946D01*
X6742Y24936D01*
X6741Y24925D01*
X6741Y24915D01*
X6671Y24912D01*
X6670Y24922D01*
X6668Y24933D01*
X6666Y24943D01*
X6662Y24953D01*
X6658Y24963D01*
X6652Y24973D01*
X6646Y24983D01*
X6638Y24992D01*
X6630Y25001D01*
X6620Y25011D01*
X6788Y25018D01*
X6779Y25008D01*
D02*
G37*
G36*
X6016Y25035D02*
X6020Y25027D01*
X6025Y25018D01*
X6032Y25008D01*
X6041Y24996D01*
X6066Y24967D01*
X6071Y24961D01*
X6095Y24985D01*
X6091Y24980D01*
X6088Y24974D01*
X6087Y24968D01*
X6087Y24961D01*
X6089Y24954D01*
X6092Y24946D01*
X6097Y24938D01*
X6103Y24929D01*
X6111Y24920D01*
X6120Y24910D01*
X6070Y24861D01*
X6061Y24870D01*
X6052Y24878D01*
X6043Y24884D01*
X6035Y24889D01*
X6027Y24892D01*
X6020Y24894D01*
X6013Y24894D01*
X6007Y24893D01*
X6001Y24890D01*
X5996Y24886D01*
X6019Y24909D01*
X5973Y24949D01*
X5963Y24956D01*
X5954Y24961D01*
X5946Y24964D01*
X5940Y24965D01*
X6015Y25040D01*
X6016Y25035D01*
D02*
G37*
G36*
X16191Y25213D02*
X16186Y25194D01*
X16182Y25165D01*
X16176Y25079D01*
X16174Y24968D01*
X16319D01*
X16290Y24965D01*
X16265Y24956D01*
X16242Y24941D01*
X16223Y24920D01*
X16206Y24893D01*
X16193Y24860D01*
X16182Y24821D01*
X16175Y24776D01*
X16170Y24725D01*
X16169Y24668D01*
X15869D01*
X15867Y24725D01*
X15863Y24776D01*
X15855Y24821D01*
X15845Y24860D01*
X15831Y24893D01*
X15815Y24920D01*
X15795Y24941D01*
X15773Y24956D01*
X15747Y24965D01*
X15719Y24968D01*
X15855D01*
X15842Y25223D01*
X16196D01*
X16191Y25213D01*
D02*
G37*
G36*
X22826Y24720D02*
X22828Y24695D01*
X22832Y24672D01*
X22837Y24653D01*
X22844Y24636D01*
X22852Y24623D01*
X22862Y24612D01*
X22873Y24605D01*
X22886Y24600D01*
X22900Y24599D01*
X22600D01*
X22614Y24600D01*
X22627Y24605D01*
X22638Y24612D01*
X22648Y24623D01*
X22656Y24636D01*
X22663Y24653D01*
X22668Y24672D01*
X22672Y24695D01*
X22674Y24720D01*
X22675Y24749D01*
X22825D01*
X22826Y24720D01*
D02*
G37*
G36*
X1183Y24713D02*
X1185Y24707D01*
X1189Y24702D01*
X1194Y24698D01*
X1200Y24694D01*
X1208Y24691D01*
X1217Y24688D01*
X1228Y24686D01*
X1240Y24685D01*
X1253Y24685D01*
Y24615D01*
X1240Y24615D01*
X1228Y24614D01*
X1217Y24612D01*
X1208Y24609D01*
X1200Y24606D01*
X1194Y24602D01*
X1189Y24598D01*
X1185Y24593D01*
X1183Y24587D01*
X1182Y24580D01*
Y24720D01*
X1183Y24713D01*
D02*
G37*
G36*
X5315Y24797D02*
X5335Y24780D01*
X5354Y24767D01*
X5371Y24757D01*
X5388Y24750D01*
X5403Y24746D01*
X5418Y24746D01*
X5431Y24748D01*
X5443Y24754D01*
X5454Y24763D01*
X5242Y24551D01*
X5251Y24562D01*
X5257Y24574D01*
X5260Y24587D01*
X5259Y24602D01*
X5255Y24617D01*
X5248Y24634D01*
X5238Y24651D01*
X5225Y24670D01*
X5208Y24690D01*
X5188Y24711D01*
X5294Y24817D01*
X5315Y24797D01*
D02*
G37*
G36*
X5655Y24542D02*
X5649Y24530D01*
X5646Y24517D01*
X5647Y24502D01*
X5651Y24487D01*
X5657Y24471D01*
X5668Y24453D01*
X5681Y24435D01*
X5697Y24415D01*
X5717Y24394D01*
X5611Y24288D01*
X5590Y24308D01*
X5570Y24324D01*
X5552Y24338D01*
X5534Y24348D01*
X5518Y24354D01*
X5503Y24358D01*
X5488Y24359D01*
X5475Y24356D01*
X5463Y24350D01*
X5452Y24341D01*
X5664Y24553D01*
X5655Y24542D01*
D02*
G37*
G36*
X17420Y24396D02*
X17422Y24392D01*
X17424Y24388D01*
X17428Y24383D01*
X17432Y24377D01*
X17445Y24363D01*
X17470Y24336D01*
X17364Y24230D01*
X17354Y24239D01*
X17317Y24272D01*
X17312Y24276D01*
X17308Y24278D01*
X17304Y24280D01*
X17301Y24280D01*
X17420Y24399D01*
X17420Y24396D01*
D02*
G37*
G36*
X10167Y24156D02*
X10147Y24135D01*
X10130Y24115D01*
X10117Y24096D01*
X10107Y24079D01*
X10100Y24062D01*
X10096Y24047D01*
X10096Y24032D01*
X10098Y24019D01*
X10104Y24007D01*
X10113Y23996D01*
X9901Y24208D01*
X9912Y24199D01*
X9924Y24193D01*
X9937Y24190D01*
X9952Y24191D01*
X9967Y24195D01*
X9984Y24202D01*
X10001Y24212D01*
X10020Y24225D01*
X10040Y24242D01*
X10061Y24262D01*
X10167Y24156D01*
D02*
G37*
G36*
X8518Y24262D02*
X8521Y24229D01*
X8523Y24219D01*
X8525Y24210D01*
X8527Y24202D01*
X8530Y24194D01*
X8533Y24187D01*
X8537Y24181D01*
X8428D01*
X8432Y24187D01*
X8435Y24194D01*
X8438Y24202D01*
X8441Y24210D01*
X8443Y24219D01*
X8445Y24229D01*
X8447Y24250D01*
X8447Y24262D01*
X8448Y24275D01*
X8518D01*
X8518Y24262D01*
D02*
G37*
G36*
X7730D02*
X7733Y24229D01*
X7735Y24219D01*
X7737Y24210D01*
X7740Y24202D01*
X7743Y24194D01*
X7746Y24187D01*
X7750Y24181D01*
X7641D01*
X7644Y24187D01*
X7648Y24194D01*
X7651Y24202D01*
X7653Y24210D01*
X7655Y24219D01*
X7657Y24229D01*
X7660Y24250D01*
X7660Y24262D01*
X7660Y24275D01*
X7730D01*
X7730Y24262D01*
D02*
G37*
G36*
X6741Y24267D02*
X6743Y24244D01*
X6745Y24234D01*
X6747Y24224D01*
X6750Y24215D01*
X6753Y24206D01*
X6757Y24197D01*
X6761Y24189D01*
X6766Y24181D01*
X6657D01*
X6659Y24186D01*
X6662Y24191D01*
X6664Y24198D01*
X6665Y24206D01*
X6667Y24214D01*
X6669Y24234D01*
X6670Y24258D01*
X6671Y24271D01*
X6741Y24278D01*
X6741Y24267D01*
D02*
G37*
G36*
X6549Y24262D02*
X6552Y24229D01*
X6554Y24219D01*
X6556Y24210D01*
X6559Y24202D01*
X6562Y24194D01*
X6565Y24187D01*
X6569Y24181D01*
X6460D01*
X6463Y24187D01*
X6467Y24194D01*
X6470Y24202D01*
X6472Y24210D01*
X6474Y24219D01*
X6476Y24229D01*
X6478Y24250D01*
X6479Y24262D01*
X6479Y24275D01*
X6549D01*
X6549Y24262D01*
D02*
G37*
G36*
X6260Y23933D02*
X6259Y23948D01*
X6255Y23960D01*
X6248Y23972D01*
X6238Y23981D01*
X6224Y23990D01*
X6207Y23997D01*
X6187Y24002D01*
X6164Y24005D01*
X6138Y24008D01*
X6108Y24009D01*
Y24158D01*
X6135Y24159D01*
X6182Y24162D01*
X6202Y24165D01*
X6220Y24169D01*
X6235Y24174D01*
X6249Y24179D01*
X6260Y24185D01*
X6269Y24192D01*
X6276Y24200D01*
X6260Y23933D01*
D02*
G37*
G36*
X9819Y23870D02*
X9814Y23874D01*
X9808Y23877D01*
X9802Y23878D01*
X9796Y23878D01*
X9788Y23876D01*
X9781Y23873D01*
X9772Y23869D01*
X9764Y23862D01*
X9755Y23855D01*
X9745Y23846D01*
X9696Y23895D01*
X9705Y23905D01*
X9712Y23914D01*
X9719Y23923D01*
X9723Y23931D01*
X9726Y23938D01*
X9728Y23946D01*
X9728Y23952D01*
X9727Y23958D01*
X9724Y23964D01*
X9720Y23969D01*
X9819Y23870D01*
D02*
G37*
G36*
X10880Y23880D02*
X10877Y23880D01*
X10873Y23878D01*
X10869Y23876D01*
X10864Y23872D01*
X10858Y23868D01*
X10844Y23855D01*
X10817Y23830D01*
X10711Y23936D01*
X10720Y23946D01*
X10753Y23983D01*
X10756Y23988D01*
X10759Y23992D01*
X10760Y23996D01*
X10761Y23999D01*
X10880Y23880D01*
D02*
G37*
G36*
X17776Y23945D02*
X17778Y23920D01*
X17782Y23897D01*
X17787Y23878D01*
X17793Y23861D01*
X17802Y23848D01*
X17811Y23837D01*
X17822Y23830D01*
X17835Y23825D01*
X17849Y23824D01*
X17551D01*
X17565Y23825D01*
X17578Y23830D01*
X17589Y23837D01*
X17598Y23848D01*
X17607Y23861D01*
X17613Y23878D01*
X17618Y23897D01*
X17622Y23920D01*
X17624Y23945D01*
X17625Y23974D01*
X17775D01*
X17776Y23945D01*
D02*
G37*
G36*
X10655Y23668D02*
X10635Y23647D01*
X10618Y23627D01*
X10605Y23609D01*
X10595Y23591D01*
X10588Y23574D01*
X10584Y23559D01*
X10583Y23545D01*
X10586Y23531D01*
X10592Y23519D01*
X10601Y23508D01*
X10389Y23720D01*
X10400Y23711D01*
X10412Y23705D01*
X10425Y23703D01*
X10440Y23703D01*
X10455Y23707D01*
X10472Y23714D01*
X10489Y23724D01*
X10508Y23738D01*
X10528Y23754D01*
X10549Y23774D01*
X10655Y23668D01*
D02*
G37*
G36*
X4770Y23785D02*
X4771Y23773D01*
X4773Y23760D01*
X4776Y23749D01*
X4779Y23738D01*
X4783Y23728D01*
X4788Y23718D01*
X4793Y23709D01*
X4800Y23700D01*
X4807Y23693D01*
X4757Y23643D01*
X4750Y23650D01*
X4741Y23657D01*
X4732Y23662D01*
X4722Y23667D01*
X4712Y23671D01*
X4701Y23674D01*
X4690Y23677D01*
X4677Y23679D01*
X4665Y23680D01*
X4651Y23680D01*
X4770Y23799D01*
X4770Y23785D01*
D02*
G37*
G36*
X10390Y23435D02*
X10385Y23434D01*
X10377Y23430D01*
X10368Y23425D01*
X10358Y23418D01*
X10346Y23409D01*
X10317Y23384D01*
X10311Y23379D01*
X10335Y23355D01*
X10330Y23359D01*
X10324Y23362D01*
X10318Y23363D01*
X10311Y23363D01*
X10304Y23361D01*
X10296Y23358D01*
X10288Y23353D01*
X10279Y23347D01*
X10270Y23339D01*
X10260Y23330D01*
X10211Y23380D01*
X10220Y23389D01*
X10228Y23398D01*
X10234Y23407D01*
X10239Y23415D01*
X10242Y23423D01*
X10244Y23430D01*
X10244Y23437D01*
X10243Y23443D01*
X10240Y23449D01*
X10236Y23454D01*
X10259Y23431D01*
X10299Y23477D01*
X10306Y23487D01*
X10311Y23496D01*
X10314Y23504D01*
X10315Y23510D01*
X10390Y23435D01*
D02*
G37*
G36*
X1127Y23846D02*
X1230Y23757D01*
X1260Y23735D01*
X1289Y23717D01*
X1315Y23703D01*
X1340Y23693D01*
X1363Y23687D01*
X1384Y23685D01*
Y23615D01*
X1363Y23613D01*
X1340Y23607D01*
X1315Y23597D01*
X1289Y23583D01*
X1260Y23565D01*
X1230Y23543D01*
X1163Y23487D01*
X1127Y23454D01*
X1089Y23416D01*
Y23884D01*
X1127Y23846D01*
D02*
G37*
G36*
X8337Y23421D02*
X8333Y23414D01*
X8330Y23407D01*
X8328Y23398D01*
X8326Y23389D01*
X8324Y23380D01*
X8322Y23358D01*
X8321Y23346D01*
X8321Y23334D01*
X8251D01*
X8251Y23346D01*
X8248Y23380D01*
X8246Y23389D01*
X8244Y23398D01*
X8241Y23407D01*
X8238Y23414D01*
X8235Y23421D01*
X8231Y23427D01*
X8340D01*
X8337Y23421D01*
D02*
G37*
G36*
X8140D02*
X8136Y23414D01*
X8134Y23407D01*
X8131Y23398D01*
X8129Y23389D01*
X8127Y23380D01*
X8125Y23358D01*
X8124Y23346D01*
X8124Y23334D01*
X8054D01*
X8054Y23346D01*
X8051Y23380D01*
X8049Y23389D01*
X8047Y23398D01*
X8044Y23407D01*
X8041Y23414D01*
X8038Y23421D01*
X8034Y23427D01*
X8143D01*
X8140Y23421D01*
D02*
G37*
G36*
X7943D02*
X7940Y23414D01*
X7937Y23407D01*
X7934Y23398D01*
X7932Y23389D01*
X7930Y23380D01*
X7928Y23358D01*
X7927Y23346D01*
X7927Y23334D01*
X7857D01*
X7857Y23346D01*
X7854Y23380D01*
X7852Y23389D01*
X7850Y23398D01*
X7848Y23407D01*
X7845Y23414D01*
X7841Y23421D01*
X7838Y23427D01*
X7947D01*
X7943Y23421D01*
D02*
G37*
G36*
X7549D02*
X7546Y23414D01*
X7543Y23407D01*
X7540Y23398D01*
X7538Y23389D01*
X7537Y23380D01*
X7534Y23358D01*
X7534Y23346D01*
X7533Y23334D01*
X7463D01*
X7463Y23346D01*
X7460Y23380D01*
X7459Y23389D01*
X7456Y23398D01*
X7454Y23407D01*
X7451Y23414D01*
X7448Y23421D01*
X7444Y23427D01*
X7553D01*
X7549Y23421D01*
D02*
G37*
G36*
X7352D02*
X7349Y23414D01*
X7346Y23407D01*
X7344Y23398D01*
X7341Y23389D01*
X7340Y23380D01*
X7337Y23358D01*
X7337Y23346D01*
X7337Y23334D01*
X7267D01*
X7266Y23346D01*
X7263Y23380D01*
X7262Y23389D01*
X7260Y23398D01*
X7257Y23407D01*
X7254Y23414D01*
X7251Y23421D01*
X7247Y23427D01*
X7356D01*
X7352Y23421D01*
D02*
G37*
G36*
X7156D02*
X7152Y23414D01*
X7149Y23407D01*
X7147Y23398D01*
X7145Y23389D01*
X7143Y23380D01*
X7141Y23358D01*
X7140Y23346D01*
X7140Y23334D01*
X7070D01*
X7070Y23346D01*
X7067Y23380D01*
X7065Y23389D01*
X7063Y23398D01*
X7060Y23407D01*
X7057Y23414D01*
X7054Y23421D01*
X7050Y23427D01*
X7159D01*
X7156Y23421D01*
D02*
G37*
G36*
X9419Y23346D02*
X9422Y23320D01*
X9424Y23310D01*
X9427Y23300D01*
X9431Y23293D01*
X9435Y23287D01*
X9440Y23282D01*
X9446Y23279D01*
X9453Y23278D01*
X9313Y23290D01*
X9320Y23291D01*
X9326Y23292D01*
X9331Y23296D01*
X9336Y23300D01*
X9340Y23307D01*
X9343Y23315D01*
X9345Y23324D01*
X9347Y23335D01*
X9348Y23348D01*
X9348Y23362D01*
X9419D01*
X9419Y23346D01*
D02*
G37*
G36*
X5359Y23178D02*
X5353Y23182D01*
X5346Y23185D01*
X5338Y23188D01*
X5330Y23191D01*
X5321Y23193D01*
X5311Y23195D01*
X5290Y23197D01*
X5278Y23197D01*
X5265Y23198D01*
Y23268D01*
X5278Y23268D01*
X5311Y23271D01*
X5321Y23273D01*
X5330Y23275D01*
X5338Y23277D01*
X5346Y23280D01*
X5353Y23283D01*
X5359Y23287D01*
Y23178D01*
D02*
G37*
G36*
X8321Y23185D02*
X8323Y23175D01*
X8325Y23164D01*
X8329Y23154D01*
X8334Y23144D01*
X8339Y23135D01*
X8346Y23125D01*
X8353Y23116D01*
X8362Y23107D01*
X8372Y23098D01*
X8204Y23088D01*
X8213Y23098D01*
X8221Y23108D01*
X8228Y23119D01*
X8234Y23129D01*
X8239Y23139D01*
X8243Y23150D01*
X8247Y23160D01*
X8249Y23171D01*
X8250Y23181D01*
X8251Y23191D01*
X8321Y23196D01*
X8321Y23185D01*
D02*
G37*
G36*
X9447Y23087D02*
X9454Y23083D01*
X9462Y23080D01*
X9470Y23078D01*
X9479Y23076D01*
X9489Y23074D01*
X9510Y23072D01*
X9522Y23071D01*
X9535Y23071D01*
Y23001D01*
X9522Y23001D01*
X9489Y22998D01*
X9479Y22996D01*
X9470Y22994D01*
X9462Y22991D01*
X9454Y22988D01*
X9447Y22985D01*
X9441Y22981D01*
Y23090D01*
X9447Y23087D01*
D02*
G37*
G36*
X5359Y22981D02*
X5362Y22979D01*
X5361Y22977D01*
X5359Y22975D01*
X5353Y22973D01*
X5345Y22971D01*
X5334Y22970D01*
X5304Y22969D01*
X5264Y22968D01*
X5253Y23038D01*
X5271Y23038D01*
X5300Y23041D01*
X5311Y23044D01*
X5321Y23047D01*
X5328Y23050D01*
X5333Y23055D01*
X5337Y23060D01*
X5338Y23066D01*
X5338Y23072D01*
X5359Y22981D01*
D02*
G37*
G36*
X9447Y22890D02*
X9454Y22886D01*
X9462Y22884D01*
X9470Y22881D01*
X9479Y22879D01*
X9489Y22877D01*
X9510Y22875D01*
X9522Y22874D01*
X9535Y22874D01*
Y22804D01*
X9522Y22804D01*
X9489Y22801D01*
X9479Y22799D01*
X9470Y22797D01*
X9462Y22794D01*
X9454Y22792D01*
X9447Y22788D01*
X9441Y22784D01*
Y22893D01*
X9447Y22890D01*
D02*
G37*
G36*
X5359Y22784D02*
X5353Y22788D01*
X5346Y22792D01*
X5338Y22794D01*
X5330Y22797D01*
X5321Y22799D01*
X5311Y22801D01*
X5290Y22803D01*
X5278Y22804D01*
X5265Y22804D01*
Y22874D01*
X5278Y22874D01*
X5311Y22877D01*
X5321Y22879D01*
X5330Y22881D01*
X5338Y22884D01*
X5346Y22886D01*
X5353Y22890D01*
X5359Y22893D01*
Y22784D01*
D02*
G37*
G36*
X7785Y22776D02*
X7787Y22766D01*
X7789Y22755D01*
X7793Y22745D01*
X7797Y22735D01*
X7803Y22725D01*
X7809Y22715D01*
X7816Y22705D01*
X7825Y22695D01*
X7834Y22686D01*
X7666D01*
X7675Y22695D01*
X7684Y22705D01*
X7691Y22715D01*
X7697Y22725D01*
X7703Y22735D01*
X7707Y22745D01*
X7711Y22755D01*
X7713Y22766D01*
X7715Y22776D01*
X7715Y22787D01*
X7785D01*
X7785Y22776D01*
D02*
G37*
G36*
X12914Y22666D02*
X12905Y22675D01*
X12895Y22684D01*
X12885Y22691D01*
X12875Y22697D01*
X12865Y22703D01*
X12855Y22707D01*
X12845Y22711D01*
X12834Y22713D01*
X12824Y22715D01*
X12813Y22715D01*
Y22785D01*
X12824Y22785D01*
X12834Y22787D01*
X12845Y22789D01*
X12855Y22793D01*
X12865Y22797D01*
X12875Y22803D01*
X12885Y22809D01*
X12895Y22816D01*
X12905Y22825D01*
X12914Y22834D01*
Y22666D01*
D02*
G37*
G36*
X11514D02*
X11505Y22675D01*
X11495Y22684D01*
X11485Y22691D01*
X11475Y22697D01*
X11465Y22703D01*
X11455Y22707D01*
X11445Y22711D01*
X11434Y22713D01*
X11424Y22715D01*
X11413Y22715D01*
Y22785D01*
X11424Y22785D01*
X11434Y22787D01*
X11445Y22789D01*
X11455Y22793D01*
X11465Y22797D01*
X11475Y22803D01*
X11485Y22809D01*
X11495Y22816D01*
X11505Y22825D01*
X11514Y22834D01*
Y22666D01*
D02*
G37*
G36*
X8050Y22750D02*
X8059Y22743D01*
X8068Y22738D01*
X8078Y22733D01*
X8088Y22729D01*
X8099Y22726D01*
X8110Y22723D01*
X8123Y22721D01*
X8135Y22720D01*
X8149Y22720D01*
X8030Y22601D01*
X8030Y22615D01*
X8029Y22627D01*
X8027Y22640D01*
X8024Y22651D01*
X8021Y22662D01*
X8017Y22672D01*
X8012Y22682D01*
X8007Y22691D01*
X8000Y22700D01*
X7993Y22707D01*
X8043Y22757D01*
X8050Y22750D01*
D02*
G37*
G36*
X9447Y22693D02*
X9454Y22690D01*
X9462Y22687D01*
X9470Y22684D01*
X9479Y22682D01*
X9489Y22680D01*
X9510Y22678D01*
X9522Y22677D01*
X9535Y22677D01*
Y22607D01*
X9522Y22607D01*
X9489Y22604D01*
X9479Y22602D01*
X9470Y22600D01*
X9462Y22598D01*
X9454Y22595D01*
X9447Y22591D01*
X9441Y22588D01*
Y22697D01*
X9447Y22693D01*
D02*
G37*
G36*
X5359Y22588D02*
X5362Y22585D01*
X5361Y22583D01*
X5359Y22581D01*
X5353Y22579D01*
X5345Y22578D01*
X5334Y22576D01*
X5304Y22575D01*
X5264Y22574D01*
X5253Y22644D01*
X5271Y22645D01*
X5300Y22647D01*
X5311Y22650D01*
X5321Y22653D01*
X5328Y22657D01*
X5333Y22661D01*
X5337Y22666D01*
X5338Y22672D01*
X5338Y22679D01*
X5359Y22588D01*
D02*
G37*
G36*
X15695Y22395D02*
X15694Y22402D01*
X15692Y22408D01*
X15689Y22413D01*
X15684Y22417D01*
X15677Y22421D01*
X15669Y22424D01*
X15660Y22427D01*
X15649Y22429D01*
X15637Y22430D01*
X15624Y22430D01*
Y22500D01*
X15637Y22500D01*
X15649Y22501D01*
X15660Y22503D01*
X15669Y22506D01*
X15677Y22509D01*
X15684Y22513D01*
X15689Y22517D01*
X15692Y22522D01*
X15694Y22528D01*
X15695Y22535D01*
Y22395D01*
D02*
G37*
G36*
X15206Y22528D02*
X15208Y22522D01*
X15211Y22517D01*
X15216Y22513D01*
X15223Y22509D01*
X15231Y22506D01*
X15240Y22503D01*
X15251Y22501D01*
X15263Y22500D01*
X15276Y22500D01*
Y22430D01*
X15263Y22430D01*
X15251Y22429D01*
X15240Y22427D01*
X15231Y22424D01*
X15223Y22421D01*
X15216Y22417D01*
X15211Y22413D01*
X15208Y22408D01*
X15206Y22402D01*
X15205Y22395D01*
Y22535D01*
X15206Y22528D01*
D02*
G37*
G36*
X9447Y22496D02*
X9454Y22493D01*
X9462Y22490D01*
X9470Y22487D01*
X9479Y22485D01*
X9489Y22483D01*
X9510Y22481D01*
X9522Y22480D01*
X9535Y22480D01*
Y22410D01*
X9522Y22410D01*
X9489Y22407D01*
X9479Y22405D01*
X9470Y22403D01*
X9462Y22401D01*
X9454Y22398D01*
X9447Y22394D01*
X9441Y22391D01*
Y22500D01*
X9447Y22496D01*
D02*
G37*
G36*
X5359Y22391D02*
X5353Y22394D01*
X5346Y22398D01*
X5338Y22401D01*
X5330Y22403D01*
X5321Y22405D01*
X5311Y22407D01*
X5290Y22410D01*
X5278Y22410D01*
X5265Y22410D01*
Y22480D01*
X5278Y22480D01*
X5311Y22483D01*
X5321Y22485D01*
X5330Y22487D01*
X5338Y22490D01*
X5346Y22493D01*
X5353Y22496D01*
X5359Y22500D01*
Y22391D01*
D02*
G37*
G36*
X1147Y22814D02*
X1207Y22747D01*
X1236Y22720D01*
X1263Y22697D01*
X1290Y22678D01*
X1315Y22663D01*
X1340Y22653D01*
X1363Y22646D01*
X1385Y22644D01*
X1377Y22574D01*
X1358Y22572D01*
X1337Y22567D01*
X1312Y22558D01*
X1285Y22545D01*
X1255Y22528D01*
X1185Y22483D01*
X1104Y22424D01*
X1059Y22388D01*
X1116Y22853D01*
X1147Y22814D01*
D02*
G37*
G36*
X14894Y22375D02*
X14893Y22382D01*
X14891Y22388D01*
X14887Y22393D01*
X14883Y22398D01*
X14876Y22402D01*
X14869Y22405D01*
X14859Y22407D01*
X14849Y22409D01*
X14837Y22410D01*
X14824Y22410D01*
Y22480D01*
X14837Y22481D01*
X14849Y22482D01*
X14859Y22483D01*
X14869Y22486D01*
X14876Y22489D01*
X14883Y22493D01*
X14887Y22497D01*
X14891Y22503D01*
X14893Y22509D01*
X14894Y22515D01*
Y22375D01*
D02*
G37*
G36*
X5340Y22207D02*
X5336Y22211D01*
X5332Y22215D01*
X5326Y22218D01*
X5319Y22221D01*
X5312Y22223D01*
X5303Y22225D01*
X5293Y22227D01*
X5282Y22228D01*
X5256Y22229D01*
X5283Y22299D01*
X5359Y22303D01*
X5340Y22207D01*
D02*
G37*
G36*
X9447Y22299D02*
X9454Y22296D01*
X9462Y22293D01*
X9470Y22290D01*
X9479Y22288D01*
X9489Y22287D01*
X9510Y22284D01*
X9522Y22284D01*
X9535Y22283D01*
Y22213D01*
X9522Y22213D01*
X9489Y22210D01*
X9479Y22209D01*
X9470Y22206D01*
X9462Y22204D01*
X9454Y22201D01*
X9447Y22198D01*
X9441Y22194D01*
Y22303D01*
X9447Y22299D01*
D02*
G37*
G36*
Y22102D02*
X9454Y22099D01*
X9462Y22096D01*
X9470Y22094D01*
X9479Y22091D01*
X9489Y22090D01*
X9510Y22087D01*
X9522Y22087D01*
X9535Y22087D01*
Y22017D01*
X9522Y22016D01*
X9489Y22013D01*
X9479Y22012D01*
X9470Y22010D01*
X9462Y22007D01*
X9454Y22004D01*
X9447Y22001D01*
X9441Y21997D01*
Y22106D01*
X9447Y22102D01*
D02*
G37*
G36*
X5359Y21997D02*
X5353Y22001D01*
X5346Y22004D01*
X5338Y22007D01*
X5330Y22010D01*
X5321Y22012D01*
X5311Y22013D01*
X5290Y22016D01*
X5278Y22016D01*
X5265Y22017D01*
Y22087D01*
X5278Y22087D01*
X5311Y22090D01*
X5321Y22091D01*
X5330Y22094D01*
X5338Y22096D01*
X5346Y22099D01*
X5353Y22102D01*
X5359Y22106D01*
Y21997D01*
D02*
G37*
G36*
X4145Y22125D02*
X4155Y22116D01*
X4165Y22109D01*
X4175Y22103D01*
X4185Y22097D01*
X4195Y22093D01*
X4205Y22089D01*
X4216Y22087D01*
X4226Y22085D01*
X4237Y22085D01*
Y22015D01*
X4226Y22015D01*
X4216Y22013D01*
X4205Y22011D01*
X4195Y22007D01*
X4185Y22003D01*
X4175Y21997D01*
X4165Y21991D01*
X4155Y21984D01*
X4145Y21975D01*
X4136Y21966D01*
Y22134D01*
X4145Y22125D01*
D02*
G37*
G36*
X4826Y22123D02*
X4847Y22109D01*
X4858Y22103D01*
X4869Y22098D01*
X4879Y22094D01*
X4890Y22091D01*
X4900Y22088D01*
X4910Y22087D01*
X4921Y22087D01*
X4929Y22017D01*
X4918Y22016D01*
X4907Y22014D01*
X4897Y22012D01*
X4887Y22008D01*
X4877Y22004D01*
X4868Y21998D01*
X4859Y21991D01*
X4850Y21983D01*
X4841Y21974D01*
X4833Y21964D01*
X4815Y22131D01*
X4826Y22123D01*
D02*
G37*
G36*
X19471Y22239D02*
X19446Y22230D01*
X19424Y22215D01*
X19404Y22194D01*
X19388Y22167D01*
X19374Y22134D01*
X19363Y22095D01*
X19356Y22049D01*
X19352Y21998D01*
X19350Y21941D01*
X19050D01*
X19049Y21998D01*
X19044Y22049D01*
X19037Y22095D01*
X19026Y22134D01*
X19013Y22167D01*
X18996Y22194D01*
X18977Y22215D01*
X18954Y22230D01*
X18929Y22239D01*
X18900Y22242D01*
X19500D01*
X19471Y22239D01*
D02*
G37*
G36*
X8114Y21916D02*
X8105Y21925D01*
X8095Y21934D01*
X8085Y21941D01*
X8075Y21947D01*
X8065Y21953D01*
X8055Y21957D01*
X8045Y21961D01*
X8034Y21963D01*
X8024Y21965D01*
X8013Y21965D01*
Y22035D01*
X8024Y22035D01*
X8034Y22037D01*
X8045Y22039D01*
X8055Y22043D01*
X8065Y22047D01*
X8075Y22053D01*
X8085Y22059D01*
X8095Y22066D01*
X8105Y22075D01*
X8114Y22084D01*
Y21916D01*
D02*
G37*
G36*
X7140Y21971D02*
X7142Y21961D01*
X7144Y21951D01*
X7148Y21940D01*
X7152Y21930D01*
X7157Y21920D01*
X7164Y21910D01*
X7171Y21900D01*
X7179Y21891D01*
X7189Y21881D01*
X7021D01*
X7030Y21891D01*
X7038Y21900D01*
X7046Y21910D01*
X7052Y21920D01*
X7057Y21930D01*
X7062Y21940D01*
X7065Y21951D01*
X7068Y21961D01*
X7069Y21971D01*
X7070Y21982D01*
X7140D01*
X7140Y21971D01*
D02*
G37*
G36*
X22620Y21860D02*
X22617Y21862D01*
X22614Y21864D01*
X22609Y21865D01*
X22603Y21866D01*
X22595Y21867D01*
X22577Y21869D01*
X22540Y21869D01*
Y22019D01*
X22553Y22020D01*
X22603Y22023D01*
X22609Y22024D01*
X22614Y22025D01*
X22617Y22027D01*
X22620Y22028D01*
Y21860D01*
D02*
G37*
G36*
X11170Y21985D02*
X11171Y21973D01*
X11173Y21960D01*
X11176Y21949D01*
X11179Y21938D01*
X11183Y21928D01*
X11188Y21918D01*
X11193Y21909D01*
X11200Y21900D01*
X11207Y21893D01*
X11157Y21843D01*
X11150Y21850D01*
X11141Y21857D01*
X11132Y21862D01*
X11122Y21867D01*
X11112Y21871D01*
X11101Y21874D01*
X11090Y21877D01*
X11077Y21879D01*
X11065Y21880D01*
X11051Y21880D01*
X11170Y21999D01*
X11170Y21985D01*
D02*
G37*
G36*
X9447Y21906D02*
X9454Y21902D01*
X9462Y21899D01*
X9470Y21897D01*
X9479Y21895D01*
X9489Y21893D01*
X9510Y21890D01*
X9522Y21890D01*
X9535Y21890D01*
Y21820D01*
X9522Y21820D01*
X9489Y21817D01*
X9479Y21815D01*
X9470Y21813D01*
X9462Y21810D01*
X9454Y21807D01*
X9447Y21804D01*
X9441Y21800D01*
Y21909D01*
X9447Y21906D01*
D02*
G37*
G36*
X6119D02*
X6126Y21902D01*
X6133Y21899D01*
X6142Y21897D01*
X6151Y21895D01*
X6160Y21893D01*
X6182Y21890D01*
X6194Y21890D01*
X6206Y21890D01*
Y21820D01*
X6194Y21820D01*
X6160Y21817D01*
X6151Y21815D01*
X6142Y21813D01*
X6133Y21810D01*
X6126Y21807D01*
X6119Y21804D01*
X6113Y21800D01*
Y21909D01*
X6119Y21906D01*
D02*
G37*
G36*
X21935Y22077D02*
X21939Y22065D01*
X21947Y22054D01*
X21957Y22045D01*
X21971Y22037D01*
X21987Y22031D01*
X22007Y22026D01*
X22029Y22022D01*
X22055Y22020D01*
X22083Y22019D01*
Y21869D01*
X22055Y21869D01*
X22029Y21867D01*
X22007Y21863D01*
X21987Y21858D01*
X21971Y21852D01*
X21957Y21844D01*
X21947Y21834D01*
X21939Y21824D01*
X21935Y21812D01*
X21933Y21798D01*
Y22091D01*
X21935Y22077D01*
D02*
G37*
G36*
X6410Y21771D02*
X6400Y21780D01*
X6390Y21788D01*
X6380Y21796D01*
X6370Y21802D01*
X6360Y21807D01*
X6350Y21812D01*
X6340Y21815D01*
X6330Y21818D01*
X6319Y21819D01*
X6308Y21820D01*
Y21890D01*
X6319Y21890D01*
X6330Y21892D01*
X6340Y21894D01*
X6350Y21898D01*
X6360Y21902D01*
X6370Y21907D01*
X6380Y21914D01*
X6390Y21921D01*
X6400Y21929D01*
X6410Y21939D01*
Y21771D01*
D02*
G37*
G36*
X26986Y21967D02*
X26988Y21964D01*
X26991Y21955D01*
X26993Y21940D01*
X26995Y21919D01*
X26999Y21775D01*
X27000Y21667D01*
X26700D01*
X26699Y21724D01*
X26694Y21775D01*
X26686Y21820D01*
X26676Y21859D01*
X26662Y21892D01*
X26646Y21919D01*
X26627Y21940D01*
X26604Y21956D01*
X26579Y21965D01*
X26550Y21968D01*
X26986Y21967D01*
D02*
G37*
G36*
X1252Y22003D02*
X1239Y21986D01*
X1227Y21966D01*
X1217Y21942D01*
X1208Y21913D01*
X1200Y21880D01*
X1194Y21843D01*
X1186Y21757D01*
X1185Y21707D01*
X1185Y21653D01*
X853Y21985D01*
X907Y21985D01*
X1043Y21994D01*
X1080Y22000D01*
X1113Y22008D01*
X1142Y22016D01*
X1166Y22027D01*
X1186Y22039D01*
X1203Y22052D01*
X1252Y22003D01*
D02*
G37*
G36*
X16399Y21651D02*
X16397Y21653D01*
X16393Y21654D01*
X16388Y21656D01*
X16382Y21657D01*
X16375Y21658D01*
X16356Y21659D01*
X16319Y21660D01*
Y21810D01*
X16333Y21810D01*
X16382Y21813D01*
X16388Y21814D01*
X16393Y21816D01*
X16397Y21817D01*
X16399Y21819D01*
Y21651D01*
D02*
G37*
G36*
X9447Y21709D02*
X9454Y21705D01*
X9462Y21702D01*
X9470Y21700D01*
X9479Y21698D01*
X9489Y21696D01*
X9510Y21694D01*
X9522Y21693D01*
X9535Y21693D01*
Y21623D01*
X9522Y21623D01*
X9489Y21620D01*
X9479Y21618D01*
X9470Y21616D01*
X9462Y21613D01*
X9454Y21610D01*
X9447Y21607D01*
X9441Y21603D01*
Y21712D01*
X9447Y21709D01*
D02*
G37*
G36*
X5359Y21603D02*
X5353Y21607D01*
X5346Y21610D01*
X5338Y21613D01*
X5330Y21616D01*
X5321Y21618D01*
X5311Y21620D01*
X5290Y21622D01*
X5278Y21623D01*
X5265Y21623D01*
Y21693D01*
X5278Y21693D01*
X5311Y21696D01*
X5321Y21698D01*
X5330Y21700D01*
X5338Y21702D01*
X5346Y21705D01*
X5353Y21709D01*
X5359Y21712D01*
Y21603D01*
D02*
G37*
G36*
X16008Y21871D02*
X16012Y21858D01*
X16020Y21847D01*
X16030Y21837D01*
X16044Y21829D01*
X16060Y21822D01*
X16080Y21817D01*
X16102Y21813D01*
X16128Y21811D01*
X16156Y21810D01*
Y21660D01*
X16128Y21659D01*
X16102Y21657D01*
X16080Y21653D01*
X16060Y21648D01*
X16044Y21641D01*
X16030Y21633D01*
X16020Y21623D01*
X16012Y21612D01*
X16008Y21599D01*
X16006Y21585D01*
Y21885D01*
X16008Y21871D01*
D02*
G37*
G36*
X5359Y21407D02*
X5353Y21410D01*
X5346Y21414D01*
X5338Y21416D01*
X5330Y21419D01*
X5321Y21421D01*
X5311Y21423D01*
X5290Y21425D01*
X5278Y21426D01*
X5265Y21426D01*
Y21496D01*
X5278Y21496D01*
X5311Y21499D01*
X5321Y21501D01*
X5330Y21503D01*
X5338Y21506D01*
X5346Y21509D01*
X5353Y21512D01*
X5359Y21516D01*
Y21407D01*
D02*
G37*
G36*
X7935Y21376D02*
X7937Y21366D01*
X7939Y21355D01*
X7943Y21345D01*
X7947Y21335D01*
X7953Y21325D01*
X7959Y21315D01*
X7966Y21305D01*
X7975Y21295D01*
X7984Y21286D01*
X7816D01*
X7825Y21295D01*
X7834Y21305D01*
X7841Y21315D01*
X7847Y21325D01*
X7853Y21335D01*
X7857Y21345D01*
X7861Y21355D01*
X7863Y21366D01*
X7865Y21376D01*
X7865Y21387D01*
X7935D01*
X7935Y21376D01*
D02*
G37*
G36*
X15205Y21533D02*
X15204Y21525D01*
X15203Y21510D01*
X15200Y21250D01*
X14900D01*
X14894Y21536D01*
X15206D01*
X15205Y21533D01*
D02*
G37*
G36*
X5359Y21210D02*
X5355Y21212D01*
X5351Y21213D01*
X5345Y21215D01*
X5338Y21216D01*
X5321Y21218D01*
X5300Y21220D01*
X5274Y21220D01*
Y21290D01*
X5287Y21290D01*
X5318Y21292D01*
X5325Y21294D01*
X5331Y21295D01*
X5336Y21297D01*
X5339Y21299D01*
X5340Y21302D01*
X5340Y21305D01*
X5359Y21210D01*
D02*
G37*
G36*
X7420Y21335D02*
X7421Y21323D01*
X7423Y21310D01*
X7426Y21299D01*
X7429Y21288D01*
X7433Y21278D01*
X7438Y21268D01*
X7443Y21259D01*
X7450Y21250D01*
X7457Y21243D01*
X7407Y21193D01*
X7400Y21200D01*
X7391Y21207D01*
X7382Y21212D01*
X7372Y21217D01*
X7362Y21221D01*
X7351Y21224D01*
X7340Y21227D01*
X7327Y21229D01*
X7315Y21230D01*
X7301Y21230D01*
X7420Y21349D01*
X7420Y21335D01*
D02*
G37*
G36*
X9128Y21009D02*
X9122Y21007D01*
X9116Y21003D01*
X9112Y20998D01*
X9108Y20992D01*
X9105Y20984D01*
X9102Y20975D01*
X9101Y20964D01*
X9100Y20952D01*
X9099Y20938D01*
X9029D01*
X9029Y20952D01*
X9028Y20964D01*
X9026Y20975D01*
X9024Y20984D01*
X9020Y20992D01*
X9017Y20998D01*
X9012Y21003D01*
X9007Y21007D01*
X9001Y21009D01*
X8994Y21010D01*
X9134D01*
X9128Y21009D01*
D02*
G37*
G36*
X5799D02*
X5793Y21007D01*
X5788Y21003D01*
X5783Y20998D01*
X5780Y20992D01*
X5776Y20984D01*
X5774Y20975D01*
X5772Y20964D01*
X5771Y20952D01*
X5771Y20938D01*
X5701D01*
X5700Y20952D01*
X5699Y20964D01*
X5698Y20975D01*
X5695Y20984D01*
X5692Y20992D01*
X5688Y20998D01*
X5684Y21003D01*
X5678Y21007D01*
X5672Y21009D01*
X5666Y21010D01*
X5806D01*
X5799Y21009D01*
D02*
G37*
G36*
X7534Y20944D02*
X7537Y20910D01*
X7538Y20901D01*
X7540Y20892D01*
X7543Y20883D01*
X7546Y20876D01*
X7549Y20869D01*
X7553Y20863D01*
X7444D01*
X7448Y20869D01*
X7451Y20876D01*
X7454Y20883D01*
X7456Y20892D01*
X7459Y20901D01*
X7460Y20910D01*
X7463Y20932D01*
X7463Y20944D01*
X7463Y20956D01*
X7533D01*
X7534Y20944D01*
D02*
G37*
G36*
X4839Y20770D02*
X4830Y20761D01*
X4822Y20752D01*
X4816Y20743D01*
X4811Y20735D01*
X4808Y20727D01*
X4806Y20720D01*
X4806Y20713D01*
X4807Y20707D01*
X4810Y20701D01*
X4814Y20696D01*
X4791Y20719D01*
X4751Y20673D01*
X4744Y20663D01*
X4739Y20654D01*
X4736Y20646D01*
X4735Y20640D01*
X4660Y20715D01*
X4665Y20716D01*
X4673Y20720D01*
X4682Y20725D01*
X4692Y20732D01*
X4704Y20741D01*
X4733Y20766D01*
X4739Y20771D01*
X4715Y20795D01*
X4721Y20791D01*
X4726Y20788D01*
X4732Y20787D01*
X4739Y20787D01*
X4746Y20789D01*
X4754Y20792D01*
X4762Y20797D01*
X4771Y20803D01*
X4780Y20811D01*
X4790Y20820D01*
X4839Y20770D01*
D02*
G37*
G36*
X1252Y21003D02*
X1239Y20986D01*
X1227Y20966D01*
X1217Y20942D01*
X1208Y20913D01*
X1200Y20880D01*
X1194Y20843D01*
X1186Y20757D01*
X1185Y20707D01*
X1185Y20653D01*
X853Y20985D01*
X907Y20985D01*
X1043Y20994D01*
X1080Y21000D01*
X1113Y21008D01*
X1142Y21016D01*
X1166Y21027D01*
X1186Y21039D01*
X1203Y21052D01*
X1252Y21003D01*
D02*
G37*
G36*
X19350Y20850D02*
X19050Y20550D01*
X19047Y20578D01*
X19038Y20604D01*
X19023Y20626D01*
X19002Y20646D01*
X18975Y20663D01*
X18942Y20676D01*
X18903Y20687D01*
X18858Y20694D01*
X18807Y20698D01*
X18750Y20700D01*
Y21000D01*
X18807Y21003D01*
X18858Y21012D01*
X18903Y21027D01*
X18942Y21048D01*
X18975Y21075D01*
X19002Y21108D01*
X19023Y21147D01*
X19038Y21192D01*
X19047Y21243D01*
X19050Y21300D01*
X19350Y20850D01*
D02*
G37*
G36*
X4661Y20430D02*
X4650Y20439D01*
X4638Y20445D01*
X4625Y20447D01*
X4610Y20447D01*
X4595Y20443D01*
X4578Y20436D01*
X4561Y20426D01*
X4542Y20412D01*
X4522Y20396D01*
X4501Y20376D01*
X4395Y20482D01*
X4415Y20503D01*
X4432Y20523D01*
X4445Y20541D01*
X4455Y20559D01*
X4462Y20576D01*
X4466Y20591D01*
X4467Y20605D01*
X4464Y20619D01*
X4458Y20631D01*
X4449Y20642D01*
X4661Y20430D01*
D02*
G37*
G36*
X8541Y20549D02*
X8543Y20543D01*
X8547Y20538D01*
X8552Y20533D01*
X8558Y20530D01*
X8566Y20526D01*
X8575Y20524D01*
X8586Y20522D01*
X8598Y20521D01*
X8612Y20521D01*
Y20451D01*
X8598Y20450D01*
X8586Y20449D01*
X8575Y20448D01*
X8566Y20445D01*
X8558Y20442D01*
X8552Y20438D01*
X8547Y20434D01*
X8543Y20428D01*
X8541Y20422D01*
X8540Y20416D01*
Y20556D01*
X8541Y20549D01*
D02*
G37*
G36*
X5327Y20282D02*
X5318Y20273D01*
X5310Y20264D01*
X5304Y20255D01*
X5299Y20247D01*
X5296Y20239D01*
X5294Y20232D01*
X5294Y20225D01*
X5295Y20219D01*
X5298Y20213D01*
X5302Y20208D01*
X5279Y20231D01*
X5239Y20185D01*
X5232Y20175D01*
X5227Y20166D01*
X5224Y20158D01*
X5222Y20152D01*
X5147Y20228D01*
X5153Y20229D01*
X5161Y20232D01*
X5170Y20237D01*
X5180Y20244D01*
X5192Y20253D01*
X5221Y20278D01*
X5227Y20284D01*
X5203Y20307D01*
X5208Y20303D01*
X5214Y20300D01*
X5220Y20299D01*
X5227Y20299D01*
X5234Y20301D01*
X5242Y20304D01*
X5250Y20309D01*
X5259Y20315D01*
X5268Y20323D01*
X5277Y20332D01*
X5327Y20282D01*
D02*
G37*
G36*
X4469Y20344D02*
X4460Y20334D01*
X4427Y20297D01*
X4424Y20292D01*
X4422Y20287D01*
X4420Y20283D01*
X4420Y20280D01*
X4296Y20394D01*
X4299Y20394D01*
X4302Y20396D01*
X4306Y20398D01*
X4311Y20402D01*
X4323Y20412D01*
X4348Y20435D01*
X4357Y20444D01*
X4469Y20344D01*
D02*
G37*
G36*
X21564Y20266D02*
X21562Y20268D01*
X21558Y20269D01*
X21553Y20271D01*
X21547Y20272D01*
X21540Y20273D01*
X21521Y20274D01*
X21484Y20275D01*
Y20425D01*
X21498Y20425D01*
X21547Y20428D01*
X21553Y20429D01*
X21558Y20431D01*
X21562Y20432D01*
X21564Y20434D01*
Y20266D01*
D02*
G37*
G36*
X21049Y20486D02*
X21054Y20473D01*
X21061Y20462D01*
X21072Y20452D01*
X21085Y20444D01*
X21102Y20437D01*
X21122Y20432D01*
X21144Y20428D01*
X21170Y20426D01*
X21199Y20425D01*
Y20275D01*
X21170Y20274D01*
X21144Y20272D01*
X21122Y20268D01*
X21102Y20263D01*
X21085Y20256D01*
X21072Y20248D01*
X21061Y20238D01*
X21054Y20227D01*
X21049Y20214D01*
X21048Y20200D01*
Y20500D01*
X21049Y20486D01*
D02*
G37*
G36*
X3314Y20116D02*
X3312Y20118D01*
X3308Y20119D01*
X3303Y20121D01*
X3297Y20122D01*
X3290Y20123D01*
X3271Y20124D01*
X3234Y20125D01*
Y20275D01*
X3248Y20275D01*
X3297Y20278D01*
X3303Y20279D01*
X3308Y20281D01*
X3312Y20282D01*
X3314Y20284D01*
Y20116D01*
D02*
G37*
G36*
X19651Y20101D02*
X19648Y20125D01*
X19640Y20145D01*
X19626Y20164D01*
X19607Y20180D01*
X19582Y20194D01*
X19552Y20205D01*
X19516Y20213D01*
X19475Y20219D01*
X19428Y20223D01*
X19376Y20224D01*
Y20524D01*
X19428Y20525D01*
X19516Y20531D01*
X19552Y20536D01*
X19582Y20543D01*
X19607Y20551D01*
X19626Y20561D01*
X19640Y20572D01*
X19648Y20585D01*
X19651Y20599D01*
Y20101D01*
D02*
G37*
G36*
X3482Y20112D02*
X3481Y20108D01*
X3479Y20103D01*
X3478Y20097D01*
X3477Y20090D01*
X3476Y20071D01*
X3475Y20034D01*
X3325D01*
X3325Y20048D01*
X3322Y20097D01*
X3321Y20103D01*
X3319Y20108D01*
X3318Y20112D01*
X3316Y20114D01*
X3484D01*
X3482Y20112D01*
D02*
G37*
G36*
X8337Y20103D02*
X8333Y20096D01*
X8330Y20088D01*
X8328Y20080D01*
X8326Y20071D01*
X8324Y20061D01*
X8322Y20040D01*
X8321Y20028D01*
X8321Y20015D01*
X8251D01*
X8251Y20028D01*
X8248Y20061D01*
X8246Y20071D01*
X8244Y20080D01*
X8241Y20088D01*
X8238Y20096D01*
X8235Y20103D01*
X8231Y20109D01*
X8340D01*
X8337Y20103D01*
D02*
G37*
G36*
X8140D02*
X8136Y20096D01*
X8134Y20088D01*
X8131Y20080D01*
X8129Y20071D01*
X8127Y20061D01*
X8125Y20040D01*
X8124Y20028D01*
X8124Y20015D01*
X8054D01*
X8054Y20028D01*
X8051Y20061D01*
X8049Y20071D01*
X8047Y20080D01*
X8044Y20088D01*
X8041Y20096D01*
X8038Y20103D01*
X8034Y20109D01*
X8143D01*
X8140Y20103D01*
D02*
G37*
G36*
X7943D02*
X7940Y20096D01*
X7937Y20088D01*
X7934Y20080D01*
X7932Y20071D01*
X7930Y20061D01*
X7928Y20040D01*
X7927Y20028D01*
X7927Y20015D01*
X7857D01*
X7857Y20028D01*
X7854Y20061D01*
X7852Y20071D01*
X7850Y20080D01*
X7848Y20088D01*
X7845Y20096D01*
X7841Y20103D01*
X7838Y20109D01*
X7947D01*
X7943Y20103D01*
D02*
G37*
G36*
X7746D02*
X7743Y20096D01*
X7740Y20088D01*
X7737Y20080D01*
X7735Y20071D01*
X7733Y20061D01*
X7731Y20040D01*
X7730Y20028D01*
X7730Y20015D01*
X7660D01*
X7660Y20028D01*
X7657Y20061D01*
X7655Y20071D01*
X7653Y20080D01*
X7651Y20088D01*
X7648Y20096D01*
X7644Y20103D01*
X7641Y20109D01*
X7750D01*
X7746Y20103D01*
D02*
G37*
G36*
X7352D02*
X7349Y20096D01*
X7346Y20088D01*
X7344Y20080D01*
X7341Y20071D01*
X7340Y20061D01*
X7337Y20040D01*
X7337Y20028D01*
X7337Y20015D01*
X7267D01*
X7266Y20028D01*
X7263Y20061D01*
X7262Y20071D01*
X7260Y20080D01*
X7257Y20088D01*
X7254Y20096D01*
X7251Y20103D01*
X7247Y20109D01*
X7356D01*
X7352Y20103D01*
D02*
G37*
G36*
X7156D02*
X7152Y20096D01*
X7149Y20088D01*
X7147Y20080D01*
X7145Y20071D01*
X7143Y20061D01*
X7141Y20040D01*
X7140Y20028D01*
X7140Y20015D01*
X7070D01*
X7070Y20028D01*
X7067Y20061D01*
X7065Y20071D01*
X7063Y20080D01*
X7060Y20088D01*
X7057Y20096D01*
X7054Y20103D01*
X7050Y20109D01*
X7159D01*
X7156Y20103D01*
D02*
G37*
G36*
X2925Y20125D02*
X2896Y20124D01*
X2871Y20119D01*
X2849Y20111D01*
X2829Y20101D01*
X2812Y20087D01*
X2799Y20071D01*
X2788Y20052D01*
X2781Y20029D01*
X2776Y20003D01*
X2775Y19975D01*
X2625D01*
X2623Y20003D01*
X2619Y20029D01*
X2612Y20052D01*
X2601Y20071D01*
X2587Y20087D01*
X2571Y20101D01*
X2551Y20111D01*
X2529Y20119D01*
X2503Y20124D01*
X2475Y20125D01*
X2700Y20275D01*
X2925Y20125D01*
D02*
G37*
G36*
X5149Y19942D02*
X5138Y19951D01*
X5126Y19957D01*
X5113Y19959D01*
X5098Y19959D01*
X5083Y19955D01*
X5066Y19948D01*
X5049Y19938D01*
X5030Y19925D01*
X5010Y19908D01*
X4989Y19888D01*
X4883Y19994D01*
X4903Y20015D01*
X4920Y20035D01*
X4933Y20054D01*
X4943Y20071D01*
X4950Y20088D01*
X4954Y20103D01*
X4954Y20118D01*
X4952Y20131D01*
X4946Y20143D01*
X4937Y20154D01*
X5149Y19942D01*
D02*
G37*
G36*
X1252Y20003D02*
X1239Y19986D01*
X1227Y19966D01*
X1217Y19942D01*
X1208Y19913D01*
X1200Y19880D01*
X1194Y19843D01*
X1186Y19757D01*
X1185Y19707D01*
X1185Y19653D01*
X853Y19985D01*
X907Y19985D01*
X1043Y19994D01*
X1080Y20000D01*
X1113Y20008D01*
X1142Y20017D01*
X1166Y20027D01*
X1186Y20039D01*
X1203Y20052D01*
X1252Y20003D01*
D02*
G37*
G36*
X26602Y19626D02*
X26606Y19575D01*
X26614Y19530D01*
X26624Y19491D01*
X26637Y19458D01*
X26654Y19430D01*
X26674Y19409D01*
X26696Y19394D01*
X26721Y19385D01*
X26750Y19382D01*
X26150D01*
X26179Y19385D01*
X26204Y19394D01*
X26226Y19409D01*
X26246Y19430D01*
X26263Y19458D01*
X26276Y19491D01*
X26286Y19530D01*
X26294Y19575D01*
X26298Y19626D01*
X26300Y19683D01*
X26600D01*
X26602Y19626D01*
D02*
G37*
G36*
X7731Y19255D02*
X7732Y19244D01*
X7733Y19233D01*
X7736Y19224D01*
X7739Y19216D01*
X7743Y19210D01*
X7747Y19205D01*
X7753Y19202D01*
X7759Y19200D01*
X7765Y19199D01*
X7625D01*
X7632Y19200D01*
X7638Y19202D01*
X7643Y19205D01*
X7648Y19210D01*
X7652Y19216D01*
X7655Y19224D01*
X7657Y19233D01*
X7659Y19244D01*
X7660Y19255D01*
X7660Y19269D01*
X7730D01*
X7731Y19255D01*
D02*
G37*
G36*
X8485Y19186D02*
X8487Y19160D01*
X8489Y19149D01*
X8491Y19138D01*
X8494Y19128D01*
X8497Y19118D01*
X8501Y19110D01*
X8505Y19103D01*
X8509Y19096D01*
X8391D01*
X8395Y19103D01*
X8399Y19110D01*
X8403Y19118D01*
X8406Y19128D01*
X8409Y19138D01*
X8411Y19149D01*
X8413Y19160D01*
X8415Y19186D01*
X8415Y19200D01*
X8485D01*
X8485Y19186D01*
D02*
G37*
G36*
X7722Y19137D02*
X7725Y19135D01*
X7729Y19134D01*
X7733Y19132D01*
X7737Y19130D01*
X7743Y19129D01*
X7754Y19126D01*
X7761Y19125D01*
X7768Y19125D01*
X7685Y19042D01*
X7685Y19049D01*
X7681Y19067D01*
X7680Y19073D01*
X7678Y19077D01*
X7676Y19081D01*
X7675Y19085D01*
X7673Y19088D01*
X7671Y19090D01*
X7720Y19139D01*
X7722Y19137D01*
D02*
G37*
G36*
X9800Y19050D02*
X9809Y19043D01*
X9818Y19038D01*
X9828Y19033D01*
X9838Y19029D01*
X9849Y19026D01*
X9860Y19023D01*
X9873Y19021D01*
X9885Y19020D01*
X9899Y19020D01*
X9780Y18901D01*
X9780Y18915D01*
X9779Y18927D01*
X9777Y18940D01*
X9774Y18951D01*
X9771Y18962D01*
X9767Y18972D01*
X9762Y18982D01*
X9757Y18991D01*
X9750Y19000D01*
X9743Y19007D01*
X9793Y19057D01*
X9800Y19050D01*
D02*
G37*
G36*
X4407Y19013D02*
X4409Y19007D01*
X4413Y19002D01*
X4417Y18998D01*
X4424Y18994D01*
X4431Y18991D01*
X4441Y18988D01*
X4451Y18986D01*
X4463Y18985D01*
X4476Y18985D01*
Y18915D01*
X4463Y18915D01*
X4451Y18914D01*
X4441Y18912D01*
X4431Y18909D01*
X4424Y18906D01*
X4417Y18902D01*
X4413Y18898D01*
X4409Y18893D01*
X4407Y18887D01*
X4406Y18880D01*
Y19020D01*
X4407Y19013D01*
D02*
G37*
G36*
X4095Y18880D02*
X4094Y18887D01*
X4092Y18893D01*
X4089Y18898D01*
X4084Y18902D01*
X4077Y18906D01*
X4069Y18909D01*
X4060Y18912D01*
X4049Y18914D01*
X4037Y18915D01*
X4024Y18915D01*
Y18985D01*
X4037Y18985D01*
X4049Y18986D01*
X4060Y18988D01*
X4069Y18991D01*
X4077Y18994D01*
X4084Y18998D01*
X4089Y19002D01*
X4092Y19007D01*
X4094Y19013D01*
X4095Y19020D01*
Y18880D01*
D02*
G37*
G36*
X3506Y19013D02*
X3508Y19007D01*
X3511Y19002D01*
X3516Y18998D01*
X3523Y18994D01*
X3531Y18991D01*
X3540Y18988D01*
X3551Y18986D01*
X3563Y18985D01*
X3576Y18985D01*
Y18915D01*
X3563Y18915D01*
X3551Y18914D01*
X3540Y18912D01*
X3531Y18909D01*
X3523Y18906D01*
X3516Y18902D01*
X3511Y18898D01*
X3508Y18893D01*
X3506Y18887D01*
X3505Y18880D01*
Y19020D01*
X3506Y19013D01*
D02*
G37*
G36*
X5214Y18866D02*
X5205Y18875D01*
X5195Y18884D01*
X5185Y18891D01*
X5175Y18897D01*
X5165Y18903D01*
X5155Y18907D01*
X5145Y18911D01*
X5134Y18913D01*
X5124Y18915D01*
X5113Y18915D01*
Y18985D01*
X5124Y18985D01*
X5134Y18987D01*
X5145Y18989D01*
X5155Y18993D01*
X5165Y18997D01*
X5175Y19003D01*
X5185Y19009D01*
X5195Y19016D01*
X5205Y19025D01*
X5214Y19034D01*
Y18866D01*
D02*
G37*
G36*
X8586Y18901D02*
X8573Y18896D01*
X8562Y18889D01*
X8552Y18878D01*
X8544Y18865D01*
X8537Y18848D01*
X8532Y18828D01*
X8528Y18806D01*
X8526Y18780D01*
X8525Y18751D01*
X8375D01*
X8374Y18780D01*
X8372Y18806D01*
X8368Y18828D01*
X8363Y18848D01*
X8356Y18865D01*
X8348Y18878D01*
X8338Y18889D01*
X8327Y18896D01*
X8314Y18901D01*
X8300Y18902D01*
X8600D01*
X8586Y18901D01*
D02*
G37*
G36*
X7896D02*
X7883Y18896D01*
X7872Y18889D01*
X7862Y18878D01*
X7854Y18865D01*
X7847Y18848D01*
X7842Y18828D01*
X7838Y18806D01*
X7836Y18780D01*
X7835Y18751D01*
X7685D01*
X7684Y18780D01*
X7682Y18806D01*
X7678Y18828D01*
X7673Y18848D01*
X7666Y18865D01*
X7658Y18878D01*
X7648Y18889D01*
X7637Y18896D01*
X7624Y18901D01*
X7610Y18902D01*
X7910D01*
X7896Y18901D01*
D02*
G37*
G36*
X1276Y18970D02*
X1258Y18950D01*
X1242Y18927D01*
X1228Y18902D01*
X1216Y18874D01*
X1206Y18844D01*
X1198Y18811D01*
X1192Y18775D01*
X1188Y18737D01*
X1185Y18697D01*
X1185Y18653D01*
X853Y18985D01*
X897Y18985D01*
X975Y18992D01*
X1011Y18998D01*
X1044Y19006D01*
X1074Y19016D01*
X1102Y19028D01*
X1127Y19042D01*
X1150Y19058D01*
X1170Y19076D01*
X1276Y18970D01*
D02*
G37*
G36*
X9350Y18750D02*
X9359Y18743D01*
X9368Y18738D01*
X9378Y18733D01*
X9388Y18729D01*
X9399Y18726D01*
X9410Y18723D01*
X9423Y18721D01*
X9435Y18720D01*
X9449Y18720D01*
X9330Y18601D01*
X9330Y18615D01*
X9329Y18627D01*
X9327Y18640D01*
X9324Y18651D01*
X9321Y18662D01*
X9317Y18672D01*
X9312Y18682D01*
X9307Y18691D01*
X9300Y18700D01*
X9293Y18707D01*
X9343Y18757D01*
X9350Y18750D01*
D02*
G37*
G36*
X7835Y18612D02*
X7838Y18563D01*
X7839Y18557D01*
X7841Y18552D01*
X7842Y18548D01*
X7844Y18546D01*
X7676D01*
X7678Y18548D01*
X7679Y18552D01*
X7681Y18557D01*
X7682Y18563D01*
X7683Y18570D01*
X7684Y18589D01*
X7685Y18626D01*
X7835D01*
X7835Y18612D01*
D02*
G37*
G36*
X11695Y18675D02*
X11705Y18666D01*
X11715Y18659D01*
X11725Y18653D01*
X11735Y18647D01*
X11745Y18643D01*
X11755Y18639D01*
X11766Y18637D01*
X11776Y18635D01*
X11787Y18635D01*
Y18565D01*
X11776Y18565D01*
X11766Y18563D01*
X11755Y18561D01*
X11745Y18557D01*
X11735Y18553D01*
X11725Y18547D01*
X11715Y18541D01*
X11705Y18534D01*
X11695Y18525D01*
X11686Y18516D01*
Y18684D01*
X11695Y18675D01*
D02*
G37*
G36*
X26766Y19117D02*
X26758Y19090D01*
Y19058D01*
X26766Y19022D01*
X26783Y18982D01*
X26809Y18937D01*
X26843Y18888D01*
X26885Y18835D01*
X26996Y18717D01*
X26783Y18504D01*
X26722Y18564D01*
X26612Y18657D01*
X26563Y18691D01*
X26518Y18717D01*
X26478Y18734D01*
X26442Y18742D01*
X26410D01*
X26383Y18734D01*
X26359Y18717D01*
X26783Y19141D01*
X26766Y19117D01*
D02*
G37*
G36*
X4794Y18136D02*
X4792Y18138D01*
X4788Y18139D01*
X4783Y18141D01*
X4777Y18142D01*
X4770Y18143D01*
X4751Y18144D01*
X4714Y18145D01*
Y18295D01*
X4728Y18295D01*
X4777Y18298D01*
X4783Y18299D01*
X4788Y18301D01*
X4792Y18302D01*
X4794Y18304D01*
Y18136D01*
D02*
G37*
G36*
X4408Y18356D02*
X4412Y18343D01*
X4420Y18332D01*
X4430Y18322D01*
X4444Y18314D01*
X4460Y18307D01*
X4480Y18302D01*
X4502Y18298D01*
X4528Y18296D01*
X4556Y18295D01*
Y18145D01*
X4528Y18144D01*
X4502Y18142D01*
X4480Y18138D01*
X4460Y18133D01*
X4444Y18126D01*
X4430Y18118D01*
X4420Y18108D01*
X4412Y18097D01*
X4408Y18084D01*
X4406Y18070D01*
Y18370D01*
X4408Y18356D01*
D02*
G37*
G36*
X3194Y18050D02*
X3192Y18064D01*
X3188Y18077D01*
X3180Y18088D01*
X3170Y18098D01*
X3156Y18106D01*
X3140Y18113D01*
X3120Y18118D01*
X3098Y18122D01*
X3072Y18124D01*
X3044Y18125D01*
Y18275D01*
X3072Y18276D01*
X3098Y18278D01*
X3120Y18282D01*
X3140Y18287D01*
X3156Y18294D01*
X3170Y18302D01*
X3180Y18312D01*
X3188Y18323D01*
X3192Y18336D01*
X3194Y18350D01*
Y18050D01*
D02*
G37*
G36*
X24748Y18113D02*
X24750Y18107D01*
X24754Y18102D01*
X24759Y18098D01*
X24765Y18094D01*
X24773Y18091D01*
X24782Y18088D01*
X24793Y18086D01*
X24805Y18085D01*
X24819Y18085D01*
Y18015D01*
X24805Y18015D01*
X24793Y18014D01*
X24782Y18012D01*
X24773Y18009D01*
X24765Y18006D01*
X24759Y18002D01*
X24754Y17998D01*
X24750Y17993D01*
X24748Y17987D01*
X24748Y17980D01*
Y18120D01*
X24748Y18113D01*
D02*
G37*
G36*
X23622Y17980D02*
X23622Y17987D01*
X23620Y17993D01*
X23616Y17998D01*
X23611Y18002D01*
X23605Y18006D01*
X23597Y18009D01*
X23588Y18012D01*
X23577Y18014D01*
X23565Y18015D01*
X23551Y18015D01*
Y18085D01*
X23565Y18085D01*
X23577Y18086D01*
X23588Y18088D01*
X23597Y18091D01*
X23605Y18094D01*
X23611Y18098D01*
X23616Y18102D01*
X23620Y18107D01*
X23622Y18113D01*
X23622Y18120D01*
Y17980D01*
D02*
G37*
G36*
X20645Y18125D02*
X20655Y18116D01*
X20665Y18109D01*
X20675Y18103D01*
X20685Y18097D01*
X20695Y18093D01*
X20705Y18089D01*
X20716Y18087D01*
X20726Y18085D01*
X20737Y18085D01*
Y18015D01*
X20726Y18015D01*
X20716Y18013D01*
X20705Y18011D01*
X20695Y18007D01*
X20685Y18003D01*
X20675Y17997D01*
X20665Y17991D01*
X20655Y17984D01*
X20645Y17975D01*
X20636Y17966D01*
Y18134D01*
X20645Y18125D01*
D02*
G37*
G36*
X20464Y17966D02*
X20455Y17975D01*
X20445Y17984D01*
X20435Y17991D01*
X20425Y17997D01*
X20415Y18003D01*
X20405Y18007D01*
X20395Y18011D01*
X20384Y18013D01*
X20374Y18015D01*
X20363Y18015D01*
Y18085D01*
X20374Y18085D01*
X20384Y18087D01*
X20395Y18089D01*
X20405Y18093D01*
X20415Y18097D01*
X20425Y18103D01*
X20435Y18109D01*
X20445Y18116D01*
X20455Y18125D01*
X20464Y18134D01*
Y17966D01*
D02*
G37*
G36*
X11825Y18055D02*
X11816Y18045D01*
X11809Y18035D01*
X11803Y18025D01*
X11797Y18015D01*
X11793Y18005D01*
X11789Y17995D01*
X11787Y17984D01*
X11785Y17974D01*
X11785Y17963D01*
X11715D01*
X11715Y17974D01*
X11713Y17984D01*
X11711Y17995D01*
X11707Y18005D01*
X11703Y18015D01*
X11697Y18025D01*
X11691Y18035D01*
X11684Y18045D01*
X11675Y18055D01*
X11666Y18064D01*
X11834D01*
X11825Y18055D01*
D02*
G37*
G36*
X3486Y18036D02*
X3473Y18031D01*
X3462Y18024D01*
X3452Y18013D01*
X3444Y18000D01*
X3437Y17983D01*
X3432Y17963D01*
X3428Y17941D01*
X3426Y17915D01*
X3425Y17886D01*
X3275D01*
X3274Y17915D01*
X3272Y17941D01*
X3268Y17963D01*
X3263Y17983D01*
X3256Y18000D01*
X3248Y18013D01*
X3238Y18024D01*
X3227Y18031D01*
X3214Y18036D01*
X3200Y18037D01*
X3500D01*
X3486Y18036D01*
D02*
G37*
G36*
X26211Y17816D02*
X26173Y17854D01*
X26070Y17943D01*
X26040Y17965D01*
X26011Y17983D01*
X25985Y17997D01*
X25960Y18007D01*
X25937Y18013D01*
X25916Y18015D01*
Y18085D01*
X25937Y18087D01*
X25960Y18093D01*
X25985Y18103D01*
X26011Y18117D01*
X26040Y18135D01*
X26070Y18157D01*
X26137Y18213D01*
X26173Y18246D01*
X26211Y18284D01*
Y17816D01*
D02*
G37*
G36*
X5914Y17016D02*
X5912Y17018D01*
X5908Y17019D01*
X5903Y17021D01*
X5897Y17022D01*
X5890Y17023D01*
X5871Y17024D01*
X5834Y17025D01*
Y17175D01*
X5848Y17175D01*
X5897Y17178D01*
X5903Y17179D01*
X5908Y17181D01*
X5912Y17182D01*
X5914Y17184D01*
Y17016D01*
D02*
G37*
G36*
X24763Y17113D02*
X24765Y17107D01*
X24769Y17102D01*
X24774Y17098D01*
X24780Y17094D01*
X24788Y17091D01*
X24797Y17088D01*
X24808Y17086D01*
X24820Y17085D01*
X24834Y17085D01*
Y17015D01*
X24820Y17015D01*
X24808Y17014D01*
X24797Y17012D01*
X24788Y17009D01*
X24780Y17006D01*
X24774Y17002D01*
X24769Y16998D01*
X24765Y16993D01*
X24763Y16987D01*
X24763Y16980D01*
Y17120D01*
X24763Y17113D01*
D02*
G37*
G36*
X23637Y16930D02*
X23637Y16937D01*
X23635Y16943D01*
X23631Y16948D01*
X23626Y16952D01*
X23620Y16956D01*
X23612Y16959D01*
X23603Y16962D01*
X23592Y16964D01*
X23580Y16965D01*
X23566Y16965D01*
Y17035D01*
X23580Y17035D01*
X23592Y17036D01*
X23603Y17038D01*
X23612Y17041D01*
X23620Y17044D01*
X23626Y17048D01*
X23631Y17052D01*
X23635Y17057D01*
X23637Y17063D01*
X23637Y17070D01*
Y16930D01*
D02*
G37*
G36*
X22245Y17075D02*
X22255Y17066D01*
X22265Y17059D01*
X22275Y17053D01*
X22285Y17047D01*
X22295Y17043D01*
X22305Y17039D01*
X22316Y17037D01*
X22326Y17035D01*
X22337Y17035D01*
Y16965D01*
X22326Y16965D01*
X22316Y16963D01*
X22305Y16961D01*
X22295Y16957D01*
X22285Y16953D01*
X22275Y16947D01*
X22265Y16941D01*
X22255Y16934D01*
X22245Y16925D01*
X22236Y16916D01*
Y17084D01*
X22245Y17075D01*
D02*
G37*
G36*
X3426Y17297D02*
X3431Y17271D01*
X3438Y17249D01*
X3449Y17229D01*
X3462Y17213D01*
X3479Y17199D01*
X3498Y17189D01*
X3521Y17181D01*
X3546Y17177D01*
X3575Y17175D01*
Y17025D01*
X3546Y17024D01*
X3521Y17019D01*
X3498Y17011D01*
X3479Y17001D01*
X3462Y16988D01*
X3449Y16971D01*
X3438Y16952D01*
X3431Y16929D01*
X3426Y16904D01*
X3425Y16875D01*
X3275Y17100D01*
X3425Y17325D01*
X3426Y17297D01*
D02*
G37*
G36*
X7070Y16914D02*
X7061Y16904D01*
X7028Y16867D01*
X7024Y16862D01*
X7022Y16858D01*
X7020Y16854D01*
X7020Y16851D01*
X6901Y16970D01*
X6904Y16970D01*
X6908Y16972D01*
X6912Y16974D01*
X6917Y16978D01*
X6923Y16982D01*
X6937Y16995D01*
X6964Y17020D01*
X7070Y16914D01*
D02*
G37*
G36*
X26211Y16816D02*
X26173Y16854D01*
X26070Y16943D01*
X26040Y16965D01*
X26011Y16983D01*
X25985Y16997D01*
X25960Y17007D01*
X25937Y17013D01*
X25916Y17015D01*
Y17085D01*
X25937Y17087D01*
X25960Y17093D01*
X25985Y17103D01*
X26011Y17117D01*
X26040Y17135D01*
X26070Y17157D01*
X26137Y17213D01*
X26173Y17246D01*
X26211Y17284D01*
Y16816D01*
D02*
G37*
G36*
X27046Y14033D02*
X26986Y13972D01*
X26892Y13861D01*
X26858Y13813D01*
X26833Y13768D01*
X26816Y13728D01*
X26810Y13702D01*
X26816Y13672D01*
X26833Y13632D01*
X26859Y13587D01*
X26893Y13538D01*
X26935Y13485D01*
X27046Y13367D01*
X26833Y13154D01*
X26772Y13214D01*
X26662Y13307D01*
X26613Y13341D01*
X26568Y13367D01*
X26528Y13384D01*
X26492Y13392D01*
X26460D01*
X26433Y13384D01*
X26409Y13367D01*
X26742Y13699D01*
X26409Y14032D01*
X26432Y14015D01*
X26460Y14007D01*
X26492Y14007D01*
X26528Y14016D01*
X26568Y14033D01*
X26613Y14058D01*
X26661Y14092D01*
X26714Y14135D01*
X26833Y14246D01*
X27046Y14033D01*
D02*
G37*
G36*
X6492Y14151D02*
X6497Y14131D01*
X6506Y14109D01*
X6518Y14085D01*
X6533Y14060D01*
X6552Y14033D01*
X6574Y14005D01*
X6629Y13944D01*
X6662Y13911D01*
X6248D01*
X6281Y13944D01*
X6358Y14033D01*
X6377Y14060D01*
X6393Y14085D01*
X6405Y14109D01*
X6413Y14131D01*
X6418Y14151D01*
X6420Y14170D01*
X6490D01*
X6492Y14151D01*
D02*
G37*
G36*
X8233Y14118D02*
X8256Y14103D01*
X8500Y13951D01*
X8113Y13883D01*
X8133Y13911D01*
X8150Y13937D01*
X8163Y13963D01*
X8171Y13987D01*
X8176Y14011D01*
X8177Y14033D01*
X8174Y14054D01*
X8167Y14074D01*
X8156Y14092D01*
X8141Y14110D01*
X8229Y14120D01*
X8233Y14118D01*
D02*
G37*
G36*
X8493Y13441D02*
X8469Y13421D01*
X8448Y13400D01*
X8430Y13380D01*
X8415Y13359D01*
X8402Y13338D01*
X8392Y13318D01*
X8385Y13297D01*
X8381Y13276D01*
X8380Y13255D01*
X8310D01*
X8308Y13276D01*
X8304Y13297D01*
X8297Y13318D01*
X8288Y13338D01*
X8275Y13359D01*
X8260Y13380D01*
X8242Y13400D01*
X8221Y13421D01*
X8197Y13441D01*
X8170Y13462D01*
X8519D01*
X8493Y13441D01*
D02*
G37*
G36*
X6629Y13456D02*
X6552Y13367D01*
X6533Y13340D01*
X6518Y13315D01*
X6506Y13291D01*
X6497Y13269D01*
X6492Y13249D01*
X6490Y13230D01*
X6420D01*
X6418Y13249D01*
X6413Y13269D01*
X6405Y13291D01*
X6393Y13315D01*
X6377Y13340D01*
X6358Y13367D01*
X6336Y13395D01*
X6281Y13456D01*
X6248Y13489D01*
X6662D01*
X6629Y13456D01*
D02*
G37*
G36*
X24713Y12763D02*
X24715Y12757D01*
X24719Y12752D01*
X24724Y12748D01*
X24730Y12744D01*
X24738Y12741D01*
X24747Y12738D01*
X24758Y12736D01*
X24770Y12735D01*
X24784Y12735D01*
Y12665D01*
X24770Y12665D01*
X24758Y12664D01*
X24747Y12662D01*
X24738Y12659D01*
X24730Y12656D01*
X24724Y12652D01*
X24719Y12648D01*
X24715Y12643D01*
X24713Y12637D01*
X24713Y12630D01*
Y12770D01*
X24713Y12763D01*
D02*
G37*
G36*
X23587Y12630D02*
X23587Y12637D01*
X23585Y12643D01*
X23581Y12648D01*
X23576Y12652D01*
X23570Y12656D01*
X23562Y12659D01*
X23553Y12662D01*
X23542Y12664D01*
X23530Y12665D01*
X23516Y12665D01*
Y12735D01*
X23530Y12735D01*
X23542Y12736D01*
X23553Y12738D01*
X23562Y12741D01*
X23570Y12744D01*
X23576Y12748D01*
X23581Y12752D01*
X23585Y12757D01*
X23587Y12763D01*
X23587Y12770D01*
Y12630D01*
D02*
G37*
G36*
X20445Y12775D02*
X20455Y12766D01*
X20465Y12759D01*
X20475Y12753D01*
X20485Y12747D01*
X20495Y12743D01*
X20505Y12739D01*
X20516Y12737D01*
X20526Y12735D01*
X20537Y12735D01*
Y12665D01*
X20526Y12665D01*
X20516Y12663D01*
X20505Y12661D01*
X20495Y12657D01*
X20485Y12653D01*
X20475Y12647D01*
X20465Y12641D01*
X20455Y12634D01*
X20445Y12625D01*
X20436Y12616D01*
Y12784D01*
X20445Y12775D01*
D02*
G37*
G36*
X26261Y12466D02*
X26223Y12504D01*
X26120Y12593D01*
X26090Y12615D01*
X26061Y12633D01*
X26035Y12647D01*
X26010Y12657D01*
X25987Y12663D01*
X25966Y12665D01*
Y12735D01*
X25987Y12737D01*
X26010Y12743D01*
X26035Y12753D01*
X26061Y12767D01*
X26090Y12785D01*
X26120Y12807D01*
X26187Y12863D01*
X26223Y12896D01*
X26261Y12934D01*
Y12466D01*
D02*
G37*
G36*
X9035Y12280D02*
X9036Y12268D01*
X9038Y12257D01*
X9041Y12248D01*
X9044Y12240D01*
X9048Y12234D01*
X9052Y12229D01*
X9057Y12225D01*
X9063Y12223D01*
X9070Y12223D01*
X8930D01*
X8937Y12223D01*
X8943Y12225D01*
X8948Y12229D01*
X8952Y12234D01*
X8956Y12240D01*
X8959Y12248D01*
X8962Y12257D01*
X8964Y12268D01*
X8965Y12280D01*
X8965Y12294D01*
X9035D01*
X9035Y12280D01*
D02*
G37*
G36*
X5885Y12230D02*
X5886Y12218D01*
X5888Y12207D01*
X5891Y12198D01*
X5894Y12190D01*
X5898Y12184D01*
X5902Y12179D01*
X5907Y12175D01*
X5913Y12173D01*
X5920Y12173D01*
X5780D01*
X5787Y12173D01*
X5793Y12175D01*
X5798Y12179D01*
X5802Y12184D01*
X5806Y12190D01*
X5809Y12198D01*
X5812Y12207D01*
X5814Y12218D01*
X5815Y12230D01*
X5815Y12244D01*
X5885D01*
X5885Y12230D01*
D02*
G37*
G36*
X8851Y11930D02*
X8850Y11937D01*
X8848Y11943D01*
X8845Y11948D01*
X8840Y11952D01*
X8834Y11956D01*
X8826Y11959D01*
X8817Y11962D01*
X8806Y11964D01*
X8795Y11965D01*
X8781Y11965D01*
Y12035D01*
X8795Y12035D01*
X8806Y12036D01*
X8817Y12038D01*
X8826Y12041D01*
X8834Y12044D01*
X8840Y12048D01*
X8845Y12052D01*
X8848Y12057D01*
X8850Y12063D01*
X8851Y12070D01*
Y11930D01*
D02*
G37*
G36*
X8063Y12063D02*
X8065Y12057D01*
X8069Y12052D01*
X8074Y12048D01*
X8080Y12044D01*
X8088Y12041D01*
X8097Y12038D01*
X8108Y12036D01*
X8120Y12035D01*
X8134Y12035D01*
Y11965D01*
X8120Y11965D01*
X8108Y11964D01*
X8097Y11962D01*
X8088Y11959D01*
X8080Y11956D01*
X8074Y11952D01*
X8069Y11948D01*
X8065Y11943D01*
X8063Y11937D01*
X8063Y11930D01*
Y12070D01*
X8063Y12063D01*
D02*
G37*
G36*
X6937Y11930D02*
X6937Y11937D01*
X6935Y11943D01*
X6931Y11948D01*
X6926Y11952D01*
X6920Y11956D01*
X6912Y11959D01*
X6903Y11962D01*
X6892Y11964D01*
X6880Y11965D01*
X6866Y11965D01*
Y12035D01*
X6880Y12035D01*
X6892Y12036D01*
X6903Y12038D01*
X6912Y12041D01*
X6920Y12044D01*
X6926Y12048D01*
X6931Y12052D01*
X6935Y12057D01*
X6937Y12063D01*
X6937Y12070D01*
Y11930D01*
D02*
G37*
G36*
X5998Y12063D02*
X6000Y12057D01*
X6004Y12052D01*
X6009Y12048D01*
X6015Y12044D01*
X6023Y12041D01*
X6032Y12038D01*
X6043Y12036D01*
X6055Y12035D01*
X6069Y12035D01*
Y11965D01*
X6055Y11965D01*
X6043Y11964D01*
X6032Y11962D01*
X6023Y11959D01*
X6015Y11956D01*
X6009Y11952D01*
X6004Y11948D01*
X6000Y11943D01*
X5998Y11937D01*
X5998Y11930D01*
Y12070D01*
X5998Y12063D01*
D02*
G37*
G36*
X16025Y12005D02*
X16016Y11995D01*
X16009Y11985D01*
X16003Y11975D01*
X15997Y11965D01*
X15993Y11955D01*
X15989Y11945D01*
X15987Y11934D01*
X15985Y11924D01*
X15985Y11913D01*
X15915D01*
X15915Y11924D01*
X15913Y11934D01*
X15911Y11945D01*
X15907Y11955D01*
X15903Y11965D01*
X15897Y11975D01*
X15891Y11985D01*
X15884Y11995D01*
X15875Y12005D01*
X15866Y12014D01*
X16034D01*
X16025Y12005D01*
D02*
G37*
G36*
X17025Y11755D02*
X17016Y11745D01*
X17009Y11735D01*
X17003Y11725D01*
X16997Y11715D01*
X16993Y11705D01*
X16989Y11695D01*
X16987Y11684D01*
X16985Y11674D01*
X16985Y11663D01*
X16915D01*
X16915Y11674D01*
X16913Y11684D01*
X16911Y11695D01*
X16907Y11705D01*
X16903Y11715D01*
X16897Y11725D01*
X16891Y11735D01*
X16884Y11745D01*
X16875Y11755D01*
X16866Y11764D01*
X17034D01*
X17025Y11755D01*
D02*
G37*
G36*
X24713Y11763D02*
X24715Y11757D01*
X24719Y11752D01*
X24724Y11748D01*
X24730Y11744D01*
X24738Y11741D01*
X24747Y11738D01*
X24758Y11736D01*
X24770Y11735D01*
X24784Y11735D01*
Y11665D01*
X24770Y11665D01*
X24758Y11664D01*
X24747Y11662D01*
X24738Y11659D01*
X24730Y11656D01*
X24724Y11652D01*
X24719Y11648D01*
X24715Y11643D01*
X24713Y11637D01*
X24713Y11630D01*
Y11770D01*
X24713Y11763D01*
D02*
G37*
G36*
X23587Y11630D02*
X23587Y11637D01*
X23585Y11643D01*
X23581Y11648D01*
X23576Y11652D01*
X23570Y11656D01*
X23562Y11659D01*
X23553Y11662D01*
X23542Y11664D01*
X23530Y11665D01*
X23516Y11665D01*
Y11735D01*
X23530Y11735D01*
X23542Y11736D01*
X23553Y11738D01*
X23562Y11741D01*
X23570Y11744D01*
X23576Y11748D01*
X23581Y11752D01*
X23585Y11757D01*
X23587Y11763D01*
X23587Y11770D01*
Y11630D01*
D02*
G37*
G36*
X22295Y11775D02*
X22305Y11766D01*
X22315Y11759D01*
X22325Y11753D01*
X22335Y11747D01*
X22345Y11743D01*
X22355Y11739D01*
X22366Y11737D01*
X22376Y11735D01*
X22387Y11735D01*
Y11665D01*
X22376Y11665D01*
X22366Y11663D01*
X22355Y11661D01*
X22345Y11657D01*
X22335Y11653D01*
X22325Y11647D01*
X22315Y11641D01*
X22305Y11634D01*
X22295Y11625D01*
X22286Y11616D01*
Y11784D01*
X22295Y11775D01*
D02*
G37*
G36*
X26261Y11466D02*
X26223Y11504D01*
X26120Y11593D01*
X26090Y11615D01*
X26061Y11633D01*
X26035Y11647D01*
X26010Y11657D01*
X25987Y11663D01*
X25966Y11665D01*
Y11735D01*
X25987Y11737D01*
X26010Y11743D01*
X26035Y11753D01*
X26061Y11767D01*
X26090Y11785D01*
X26120Y11807D01*
X26187Y11863D01*
X26223Y11896D01*
X26261Y11934D01*
Y11466D01*
D02*
G37*
G36*
X9063Y11186D02*
X9052Y11195D01*
X9038Y11199D01*
X9022D01*
X9004Y11195D01*
X8984Y11186D01*
X8962Y11173D01*
X8937Y11157D01*
X8911Y11135D01*
X8851Y11080D01*
X8745Y11186D01*
X8775Y11217D01*
X8821Y11272D01*
X8838Y11297D01*
X8851Y11319D01*
X8860Y11339D01*
X8864Y11357D01*
Y11373D01*
X8860Y11387D01*
X8851Y11398D01*
X9063Y11186D01*
D02*
G37*
G36*
X5989Y11337D02*
X5985Y11323D01*
X5985Y11307D01*
X5990Y11289D01*
X5998Y11269D01*
X6011Y11247D01*
X6028Y11222D01*
X6049Y11196D01*
X6105Y11136D01*
X5999Y11030D01*
X5968Y11060D01*
X5913Y11107D01*
X5888Y11124D01*
X5866Y11137D01*
X5846Y11145D01*
X5828Y11150D01*
X5812Y11150D01*
X5798Y11146D01*
X5787Y11137D01*
X5998Y11348D01*
X5989Y11337D01*
D02*
G37*
G36*
X8435Y10664D02*
X8426Y10654D01*
X8393Y10617D01*
X8389Y10612D01*
X8387Y10608D01*
X8385Y10604D01*
X8385Y10601D01*
X8266Y10720D01*
X8269Y10720D01*
X8273Y10722D01*
X8277Y10724D01*
X8282Y10728D01*
X8288Y10732D01*
X8302Y10745D01*
X8329Y10770D01*
X8435Y10664D01*
D02*
G37*
G36*
X6481Y10761D02*
X6518Y10728D01*
X6523Y10724D01*
X6527Y10722D01*
X6531Y10720D01*
X6534Y10720D01*
X6415Y10601D01*
X6415Y10604D01*
X6413Y10608D01*
X6411Y10612D01*
X6407Y10617D01*
X6403Y10623D01*
X6390Y10637D01*
X6365Y10664D01*
X6471Y10770D01*
X6481Y10761D01*
D02*
G37*
G36*
X3913Y9213D02*
X3915Y9207D01*
X3919Y9202D01*
X3924Y9198D01*
X3930Y9194D01*
X3938Y9191D01*
X3947Y9188D01*
X3958Y9186D01*
X3970Y9185D01*
X3984Y9185D01*
Y9115D01*
X3970Y9115D01*
X3958Y9114D01*
X3947Y9112D01*
X3938Y9109D01*
X3930Y9106D01*
X3924Y9102D01*
X3919Y9098D01*
X3915Y9093D01*
X3913Y9087D01*
X3913Y9080D01*
Y9220D01*
X3913Y9213D01*
D02*
G37*
G36*
X6464Y9066D02*
X6455Y9075D01*
X6445Y9084D01*
X6435Y9091D01*
X6425Y9097D01*
X6415Y9103D01*
X6405Y9107D01*
X6395Y9111D01*
X6384Y9113D01*
X6374Y9115D01*
X6363Y9115D01*
Y9185D01*
X6374Y9185D01*
X6384Y9187D01*
X6395Y9189D01*
X6405Y9193D01*
X6415Y9197D01*
X6425Y9203D01*
X6435Y9209D01*
X6445Y9216D01*
X6455Y9225D01*
X6464Y9234D01*
Y9066D01*
D02*
G37*
G36*
X2787Y9030D02*
X2787Y9037D01*
X2785Y9043D01*
X2781Y9048D01*
X2776Y9052D01*
X2770Y9056D01*
X2762Y9059D01*
X2753Y9062D01*
X2742Y9064D01*
X2730Y9065D01*
X2716Y9065D01*
Y9135D01*
X2730Y9135D01*
X2742Y9136D01*
X2753Y9138D01*
X2762Y9141D01*
X2770Y9144D01*
X2776Y9148D01*
X2781Y9152D01*
X2785Y9157D01*
X2787Y9163D01*
X2787Y9170D01*
Y9030D01*
D02*
G37*
G36*
X1477Y9296D02*
X1580Y9207D01*
X1610Y9185D01*
X1639Y9167D01*
X1665Y9153D01*
X1690Y9143D01*
X1713Y9137D01*
X1734Y9135D01*
Y9065D01*
X1713Y9063D01*
X1690Y9057D01*
X1665Y9047D01*
X1639Y9033D01*
X1610Y9015D01*
X1580Y8993D01*
X1513Y8937D01*
X1477Y8904D01*
X1439Y8866D01*
Y9334D01*
X1477Y9296D01*
D02*
G37*
G36*
X26996Y8583D02*
X26936Y8522D01*
X26842Y8411D01*
X26808Y8363D01*
X26783Y8318D01*
X26766Y8278D01*
X26760Y8252D01*
X26766Y8222D01*
X26783Y8182D01*
X26809Y8137D01*
X26843Y8088D01*
X26885Y8035D01*
X26996Y7917D01*
X26783Y7704D01*
X26722Y7764D01*
X26612Y7857D01*
X26563Y7891D01*
X26518Y7917D01*
X26478Y7934D01*
X26442Y7942D01*
X26410D01*
X26383Y7934D01*
X26359Y7917D01*
X26692Y8249D01*
X26359Y8582D01*
X26382Y8565D01*
X26410Y8557D01*
X26442Y8557D01*
X26478Y8566D01*
X26518Y8583D01*
X26563Y8608D01*
X26611Y8642D01*
X26664Y8685D01*
X26783Y8796D01*
X26996Y8583D01*
D02*
G37*
G36*
X3913Y8163D02*
X3915Y8157D01*
X3919Y8152D01*
X3924Y8148D01*
X3930Y8144D01*
X3938Y8141D01*
X3947Y8138D01*
X3958Y8136D01*
X3970Y8135D01*
X3984Y8135D01*
Y8065D01*
X3970Y8065D01*
X3958Y8064D01*
X3947Y8062D01*
X3938Y8059D01*
X3930Y8056D01*
X3924Y8052D01*
X3919Y8048D01*
X3915Y8043D01*
X3913Y8037D01*
X3913Y8030D01*
Y8170D01*
X3913Y8163D01*
D02*
G37*
G36*
X2787Y8030D02*
X2787Y8037D01*
X2785Y8043D01*
X2781Y8048D01*
X2776Y8052D01*
X2770Y8056D01*
X2762Y8059D01*
X2753Y8062D01*
X2742Y8064D01*
X2730Y8065D01*
X2716Y8065D01*
Y8135D01*
X2730Y8135D01*
X2742Y8136D01*
X2753Y8138D01*
X2762Y8141D01*
X2770Y8144D01*
X2776Y8148D01*
X2781Y8152D01*
X2785Y8157D01*
X2787Y8163D01*
X2787Y8170D01*
Y8030D01*
D02*
G37*
G36*
X6514Y8016D02*
X6505Y8025D01*
X6495Y8034D01*
X6485Y8041D01*
X6475Y8047D01*
X6465Y8053D01*
X6455Y8057D01*
X6445Y8061D01*
X6434Y8063D01*
X6424Y8065D01*
X6413Y8065D01*
Y8135D01*
X6424Y8135D01*
X6434Y8137D01*
X6445Y8139D01*
X6455Y8143D01*
X6465Y8147D01*
X6475Y8153D01*
X6485Y8159D01*
X6495Y8166D01*
X6505Y8175D01*
X6514Y8184D01*
Y8016D01*
D02*
G37*
G36*
X1477Y8296D02*
X1580Y8207D01*
X1610Y8185D01*
X1639Y8167D01*
X1665Y8153D01*
X1690Y8143D01*
X1713Y8137D01*
X1734Y8135D01*
Y8065D01*
X1713Y8063D01*
X1690Y8057D01*
X1665Y8047D01*
X1639Y8033D01*
X1610Y8015D01*
X1580Y7993D01*
X1513Y7937D01*
X1477Y7904D01*
X1439Y7866D01*
Y8334D01*
X1477Y8296D01*
D02*
G37*
G36*
X897Y7510D02*
X953Y7463D01*
X977Y7446D01*
X999Y7433D01*
X1020Y7424D01*
X1038Y7420D01*
X1053Y7420D01*
X1067Y7424D01*
X1079Y7432D01*
X868Y7221D01*
X876Y7233D01*
X880Y7247D01*
X880Y7262D01*
X876Y7280D01*
X867Y7301D01*
X854Y7323D01*
X837Y7347D01*
X816Y7374D01*
X760Y7433D01*
X867Y7540D01*
X897Y7510D01*
D02*
G37*
G36*
X24763Y7313D02*
X24765Y7307D01*
X24769Y7302D01*
X24774Y7298D01*
X24780Y7294D01*
X24788Y7291D01*
X24797Y7288D01*
X24808Y7286D01*
X24820Y7285D01*
X24834Y7285D01*
Y7215D01*
X24820Y7215D01*
X24808Y7214D01*
X24797Y7212D01*
X24788Y7209D01*
X24780Y7206D01*
X24774Y7202D01*
X24769Y7198D01*
X24765Y7193D01*
X24763Y7187D01*
X24763Y7180D01*
Y7320D01*
X24763Y7313D01*
D02*
G37*
G36*
X23637Y7180D02*
X23637Y7187D01*
X23635Y7193D01*
X23631Y7198D01*
X23626Y7202D01*
X23620Y7206D01*
X23612Y7209D01*
X23603Y7212D01*
X23592Y7214D01*
X23580Y7215D01*
X23566Y7215D01*
Y7285D01*
X23580Y7285D01*
X23592Y7286D01*
X23603Y7288D01*
X23612Y7291D01*
X23620Y7294D01*
X23626Y7298D01*
X23631Y7302D01*
X23635Y7307D01*
X23637Y7313D01*
X23637Y7320D01*
Y7180D01*
D02*
G37*
G36*
X20345Y7325D02*
X20355Y7316D01*
X20365Y7309D01*
X20375Y7303D01*
X20385Y7297D01*
X20395Y7293D01*
X20405Y7289D01*
X20416Y7287D01*
X20426Y7285D01*
X20437Y7285D01*
Y7215D01*
X20426Y7215D01*
X20416Y7213D01*
X20405Y7211D01*
X20395Y7207D01*
X20385Y7203D01*
X20375Y7197D01*
X20365Y7191D01*
X20355Y7184D01*
X20345Y7175D01*
X20336Y7166D01*
Y7334D01*
X20345Y7325D01*
D02*
G37*
G36*
X26211Y7016D02*
X26173Y7054D01*
X26070Y7143D01*
X26040Y7165D01*
X26011Y7183D01*
X25985Y7197D01*
X25960Y7207D01*
X25937Y7213D01*
X25916Y7215D01*
Y7285D01*
X25937Y7287D01*
X25960Y7293D01*
X25985Y7303D01*
X26011Y7317D01*
X26040Y7335D01*
X26070Y7357D01*
X26137Y7413D01*
X26173Y7446D01*
X26211Y7484D01*
Y7016D01*
D02*
G37*
G36*
X1336Y6765D02*
X1323Y6761D01*
X1312Y6753D01*
X1302Y6743D01*
X1294Y6729D01*
X1287Y6713D01*
X1282Y6693D01*
X1278Y6671D01*
X1276Y6645D01*
X1275Y6617D01*
X1125D01*
X1124Y6645D01*
X1122Y6671D01*
X1118Y6693D01*
X1113Y6713D01*
X1106Y6729D01*
X1098Y6743D01*
X1088Y6753D01*
X1077Y6761D01*
X1064Y6765D01*
X1050Y6767D01*
X1350D01*
X1336Y6765D01*
D02*
G37*
G36*
X24764Y6302D02*
X24767Y6299D01*
X24770Y6295D01*
X24775Y6293D01*
X24781Y6290D01*
X24789Y6288D01*
X24798Y6287D01*
X24809Y6286D01*
X24834Y6285D01*
Y6215D01*
X24820Y6215D01*
X24808Y6214D01*
X24798Y6212D01*
X24788Y6209D01*
X24781Y6206D01*
X24774Y6202D01*
X24769Y6198D01*
X24766Y6193D01*
X24763Y6187D01*
X24763Y6180D01*
X24764Y6306D01*
X24764Y6302D01*
D02*
G37*
G36*
X23637Y6130D02*
X23637Y6137D01*
X23635Y6143D01*
X23631Y6148D01*
X23626Y6152D01*
X23620Y6156D01*
X23612Y6159D01*
X23603Y6162D01*
X23592Y6164D01*
X23580Y6165D01*
X23566Y6165D01*
Y6235D01*
X23580Y6235D01*
X23592Y6236D01*
X23603Y6238D01*
X23612Y6241D01*
X23620Y6244D01*
X23626Y6248D01*
X23631Y6252D01*
X23635Y6257D01*
X23637Y6263D01*
X23637Y6270D01*
Y6130D01*
D02*
G37*
G36*
X21495Y6275D02*
X21505Y6266D01*
X21515Y6259D01*
X21525Y6253D01*
X21535Y6247D01*
X21545Y6243D01*
X21555Y6239D01*
X21566Y6237D01*
X21576Y6235D01*
X21587Y6235D01*
Y6165D01*
X21576Y6165D01*
X21566Y6163D01*
X21555Y6161D01*
X21545Y6157D01*
X21535Y6153D01*
X21525Y6147D01*
X21515Y6141D01*
X21505Y6134D01*
X21495Y6125D01*
X21486Y6116D01*
Y6284D01*
X21495Y6275D01*
D02*
G37*
G36*
X26211Y6016D02*
X26173Y6054D01*
X26070Y6143D01*
X26040Y6165D01*
X26011Y6183D01*
X25985Y6197D01*
X25960Y6207D01*
X25937Y6213D01*
X25916Y6215D01*
Y6285D01*
X25937Y6287D01*
X25960Y6293D01*
X25985Y6303D01*
X26011Y6317D01*
X26040Y6335D01*
X26070Y6357D01*
X26137Y6413D01*
X26173Y6446D01*
X26211Y6484D01*
Y6016D01*
D02*
G37*
G36*
X7257Y5757D02*
X7250Y5750D01*
X7243Y5741D01*
X7238Y5732D01*
X7233Y5722D01*
X7229Y5712D01*
X7226Y5701D01*
X7223Y5690D01*
X7221Y5677D01*
X7220Y5665D01*
X7220Y5651D01*
X7101Y5770D01*
X7115Y5770D01*
X7127Y5771D01*
X7140Y5773D01*
X7151Y5776D01*
X7162Y5779D01*
X7172Y5783D01*
X7182Y5788D01*
X7191Y5793D01*
X7200Y5800D01*
X7207Y5807D01*
X7257Y5757D01*
D02*
G37*
G36*
X5525Y5555D02*
X5516Y5545D01*
X5509Y5535D01*
X5503Y5525D01*
X5497Y5515D01*
X5493Y5505D01*
X5489Y5495D01*
X5487Y5484D01*
X5485Y5474D01*
X5485Y5463D01*
X5415D01*
X5415Y5474D01*
X5413Y5484D01*
X5411Y5495D01*
X5407Y5505D01*
X5403Y5515D01*
X5397Y5525D01*
X5391Y5535D01*
X5384Y5545D01*
X5375Y5555D01*
X5366Y5564D01*
X5534D01*
X5525Y5555D01*
D02*
G37*
G36*
X12185Y4420D02*
X12186Y4408D01*
X12188Y4397D01*
X12191Y4388D01*
X12194Y4380D01*
X12198Y4374D01*
X12202Y4369D01*
X12207Y4365D01*
X12213Y4363D01*
X12220Y4363D01*
X12080D01*
X12087Y4363D01*
X12093Y4365D01*
X12098Y4369D01*
X12102Y4374D01*
X12106Y4380D01*
X12109Y4388D01*
X12112Y4397D01*
X12114Y4408D01*
X12115Y4420D01*
X12115Y4434D01*
X12185D01*
X12185Y4420D01*
D02*
G37*
G36*
X11185D02*
X11186Y4408D01*
X11188Y4397D01*
X11191Y4388D01*
X11194Y4380D01*
X11198Y4374D01*
X11202Y4369D01*
X11207Y4365D01*
X11213Y4363D01*
X11220Y4363D01*
X11080D01*
X11087Y4363D01*
X11093Y4365D01*
X11098Y4369D01*
X11102Y4374D01*
X11106Y4380D01*
X11109Y4388D01*
X11112Y4397D01*
X11114Y4408D01*
X11115Y4420D01*
X11115Y4434D01*
X11185D01*
X11185Y4420D01*
D02*
G37*
G36*
X6285Y4320D02*
X6286Y4308D01*
X6288Y4297D01*
X6291Y4288D01*
X6294Y4280D01*
X6298Y4274D01*
X6302Y4269D01*
X6307Y4265D01*
X6313Y4263D01*
X6320Y4263D01*
X6180D01*
X6187Y4263D01*
X6193Y4265D01*
X6198Y4269D01*
X6202Y4274D01*
X6206Y4280D01*
X6209Y4288D01*
X6212Y4297D01*
X6214Y4308D01*
X6215Y4320D01*
X6215Y4334D01*
X6285D01*
X6285Y4320D01*
D02*
G37*
G36*
X5485D02*
X5486Y4308D01*
X5488Y4297D01*
X5491Y4288D01*
X5494Y4280D01*
X5498Y4274D01*
X5502Y4269D01*
X5507Y4265D01*
X5513Y4263D01*
X5520Y4263D01*
X5380D01*
X5387Y4263D01*
X5393Y4265D01*
X5398Y4269D01*
X5402Y4274D01*
X5406Y4280D01*
X5409Y4288D01*
X5412Y4297D01*
X5414Y4308D01*
X5415Y4320D01*
X5415Y4334D01*
X5485D01*
X5485Y4320D01*
D02*
G37*
G36*
X20985Y3240D02*
X20986Y3228D01*
X20988Y3217D01*
X20991Y3208D01*
X20994Y3200D01*
X20998Y3194D01*
X21002Y3189D01*
X21007Y3185D01*
X21013Y3183D01*
X21020Y3182D01*
X20880D01*
X20887Y3183D01*
X20893Y3185D01*
X20898Y3189D01*
X20902Y3194D01*
X20906Y3200D01*
X20909Y3208D01*
X20912Y3217D01*
X20914Y3228D01*
X20915Y3240D01*
X20915Y3253D01*
X20985D01*
X20985Y3240D01*
D02*
G37*
G36*
X19985D02*
X19986Y3228D01*
X19988Y3217D01*
X19991Y3208D01*
X19994Y3200D01*
X19998Y3194D01*
X20002Y3189D01*
X20007Y3185D01*
X20013Y3183D01*
X20020Y3182D01*
X19880D01*
X19887Y3183D01*
X19893Y3185D01*
X19898Y3189D01*
X19902Y3194D01*
X19906Y3200D01*
X19909Y3208D01*
X19912Y3217D01*
X19914Y3228D01*
X19915Y3240D01*
X19915Y3253D01*
X19985D01*
X19985Y3240D01*
D02*
G37*
G36*
X18985D02*
X18986Y3228D01*
X18988Y3217D01*
X18991Y3208D01*
X18994Y3200D01*
X18998Y3194D01*
X19002Y3189D01*
X19007Y3185D01*
X19013Y3183D01*
X19020Y3182D01*
X18880D01*
X18887Y3183D01*
X18893Y3185D01*
X18898Y3189D01*
X18902Y3194D01*
X18906Y3200D01*
X18909Y3208D01*
X18912Y3217D01*
X18914Y3228D01*
X18915Y3240D01*
X18915Y3253D01*
X18985D01*
X18985Y3240D01*
D02*
G37*
G36*
X17985D02*
X17986Y3228D01*
X17988Y3217D01*
X17991Y3208D01*
X17994Y3200D01*
X17998Y3194D01*
X18002Y3189D01*
X18007Y3185D01*
X18013Y3183D01*
X18020Y3182D01*
X17880D01*
X17887Y3183D01*
X17893Y3185D01*
X17898Y3189D01*
X17902Y3194D01*
X17906Y3200D01*
X17909Y3208D01*
X17912Y3217D01*
X17914Y3228D01*
X17915Y3240D01*
X17915Y3253D01*
X17985D01*
X17985Y3240D01*
D02*
G37*
G36*
X16985D02*
X16986Y3228D01*
X16988Y3217D01*
X16991Y3208D01*
X16994Y3200D01*
X16998Y3194D01*
X17002Y3189D01*
X17007Y3185D01*
X17013Y3183D01*
X17020Y3182D01*
X16880D01*
X16887Y3183D01*
X16893Y3185D01*
X16898Y3189D01*
X16902Y3194D01*
X16906Y3200D01*
X16909Y3208D01*
X16912Y3217D01*
X16914Y3228D01*
X16915Y3240D01*
X16915Y3253D01*
X16985D01*
X16985Y3240D01*
D02*
G37*
G36*
X15985D02*
X15986Y3228D01*
X15988Y3217D01*
X15991Y3208D01*
X15994Y3200D01*
X15998Y3194D01*
X16002Y3189D01*
X16007Y3185D01*
X16013Y3183D01*
X16020Y3182D01*
X15880D01*
X15887Y3183D01*
X15893Y3185D01*
X15898Y3189D01*
X15902Y3194D01*
X15906Y3200D01*
X15909Y3208D01*
X15912Y3217D01*
X15914Y3228D01*
X15915Y3240D01*
X15915Y3253D01*
X15985D01*
X15985Y3240D01*
D02*
G37*
G36*
X12163Y3237D02*
X12157Y3235D01*
X12152Y3231D01*
X12148Y3226D01*
X12144Y3220D01*
X12141Y3212D01*
X12138Y3203D01*
X12136Y3192D01*
X12135Y3180D01*
X12135Y3166D01*
X12065D01*
X12065Y3180D01*
X12064Y3192D01*
X12062Y3203D01*
X12059Y3212D01*
X12056Y3220D01*
X12052Y3226D01*
X12048Y3231D01*
X12043Y3235D01*
X12037Y3237D01*
X12030Y3237D01*
X12170D01*
X12163Y3237D01*
D02*
G37*
G36*
X11163D02*
X11157Y3235D01*
X11152Y3231D01*
X11148Y3226D01*
X11144Y3220D01*
X11141Y3212D01*
X11138Y3203D01*
X11136Y3192D01*
X11135Y3180D01*
X11135Y3166D01*
X11065D01*
X11065Y3180D01*
X11064Y3192D01*
X11062Y3203D01*
X11059Y3212D01*
X11056Y3220D01*
X11052Y3226D01*
X11048Y3231D01*
X11043Y3235D01*
X11037Y3237D01*
X11030Y3237D01*
X11170D01*
X11163Y3237D01*
D02*
G37*
G36*
X6391Y3136D02*
X6382Y3133D01*
X6374Y3128D01*
X6368Y3121D01*
X6363Y3112D01*
X6358Y3101D01*
X6355Y3088D01*
X6352Y3073D01*
X6350Y3055D01*
X6350Y3036D01*
X6250D01*
X6249Y3055D01*
X6248Y3073D01*
X6245Y3088D01*
X6242Y3101D01*
X6237Y3112D01*
X6232Y3121D01*
X6226Y3128D01*
X6218Y3133D01*
X6209Y3136D01*
X6200Y3137D01*
X6400D01*
X6391Y3136D01*
D02*
G37*
G36*
X5541D02*
X5532Y3133D01*
X5525Y3128D01*
X5518Y3121D01*
X5512Y3112D01*
X5508Y3101D01*
X5505Y3088D01*
X5502Y3073D01*
X5501Y3055D01*
X5500Y3036D01*
X5400D01*
X5400Y3055D01*
X5398Y3073D01*
X5396Y3088D01*
X5392Y3101D01*
X5387Y3112D01*
X5382Y3121D01*
X5375Y3128D01*
X5368Y3133D01*
X5360Y3136D01*
X5350Y3137D01*
X5550D01*
X5541Y3136D01*
D02*
G37*
G36*
X12137Y1963D02*
X12143Y1940D01*
X12153Y1915D01*
X12167Y1889D01*
X12185Y1860D01*
X12207Y1830D01*
X12263Y1763D01*
X12296Y1727D01*
X12334Y1689D01*
X11866D01*
X11904Y1727D01*
X11993Y1830D01*
X12015Y1860D01*
X12033Y1889D01*
X12047Y1915D01*
X12057Y1940D01*
X12063Y1963D01*
X12065Y1984D01*
X12135D01*
X12137Y1963D01*
D02*
G37*
G36*
X11137D02*
X11143Y1940D01*
X11153Y1915D01*
X11167Y1889D01*
X11185Y1860D01*
X11207Y1830D01*
X11263Y1763D01*
X11296Y1727D01*
X11334Y1689D01*
X10866D01*
X10904Y1727D01*
X10993Y1830D01*
X11015Y1860D01*
X11033Y1889D01*
X11047Y1915D01*
X11057Y1940D01*
X11063Y1963D01*
X11065Y1984D01*
X11135D01*
X11137Y1963D01*
D02*
G37*
G36*
X21206Y2068D02*
X21226Y2054D01*
X21247Y2041D01*
X21270Y2030D01*
X21296Y2021D01*
X21323Y2013D01*
X21352Y2008D01*
X21382Y2003D01*
X21415Y2001D01*
X21450Y2000D01*
Y1700D01*
X21415Y1699D01*
X21382Y1697D01*
X21352Y1692D01*
X21323Y1687D01*
X21296Y1679D01*
X21270Y1670D01*
X21247Y1659D01*
X21226Y1646D01*
X21206Y1632D01*
X21189Y1616D01*
Y2084D01*
X21206Y2068D01*
D02*
G37*
G36*
X20711Y1616D02*
X20694Y1632D01*
X20674Y1646D01*
X20653Y1659D01*
X20630Y1670D01*
X20604Y1679D01*
X20577Y1687D01*
X20548Y1692D01*
X20518Y1697D01*
X20485Y1699D01*
X20450Y1700D01*
Y2000D01*
X20485Y2001D01*
X20518Y2003D01*
X20548Y2008D01*
X20577Y2013D01*
X20604Y2021D01*
X20630Y2030D01*
X20653Y2041D01*
X20674Y2054D01*
X20694Y2068D01*
X20711Y2084D01*
Y1616D01*
D02*
G37*
G36*
X20206Y2068D02*
X20226Y2054D01*
X20247Y2041D01*
X20270Y2030D01*
X20296Y2021D01*
X20323Y2013D01*
X20352Y2008D01*
X20382Y2003D01*
X20415Y2001D01*
X20450Y2000D01*
Y1700D01*
X20415Y1699D01*
X20382Y1697D01*
X20352Y1692D01*
X20323Y1687D01*
X20296Y1679D01*
X20270Y1670D01*
X20247Y1659D01*
X20226Y1646D01*
X20206Y1632D01*
X20189Y1616D01*
Y2084D01*
X20206Y2068D01*
D02*
G37*
G36*
X19711Y1616D02*
X19694Y1632D01*
X19674Y1646D01*
X19653Y1659D01*
X19630Y1670D01*
X19604Y1679D01*
X19577Y1687D01*
X19548Y1692D01*
X19518Y1697D01*
X19485Y1699D01*
X19450Y1700D01*
Y2000D01*
X19485Y2001D01*
X19518Y2003D01*
X19548Y2008D01*
X19577Y2013D01*
X19604Y2021D01*
X19630Y2030D01*
X19653Y2041D01*
X19674Y2054D01*
X19694Y2068D01*
X19711Y2084D01*
Y1616D01*
D02*
G37*
G36*
X19206Y2068D02*
X19226Y2054D01*
X19247Y2041D01*
X19270Y2030D01*
X19296Y2021D01*
X19323Y2013D01*
X19352Y2008D01*
X19382Y2003D01*
X19415Y2001D01*
X19450Y2000D01*
Y1700D01*
X19415Y1699D01*
X19382Y1697D01*
X19352Y1692D01*
X19323Y1687D01*
X19296Y1679D01*
X19270Y1670D01*
X19247Y1659D01*
X19226Y1646D01*
X19206Y1632D01*
X19189Y1616D01*
Y2084D01*
X19206Y2068D01*
D02*
G37*
G36*
X18711Y1616D02*
X18694Y1632D01*
X18674Y1646D01*
X18653Y1659D01*
X18630Y1670D01*
X18604Y1679D01*
X18577Y1687D01*
X18548Y1692D01*
X18518Y1697D01*
X18485Y1699D01*
X18450Y1700D01*
Y2000D01*
X18485Y2001D01*
X18518Y2003D01*
X18548Y2008D01*
X18577Y2013D01*
X18604Y2021D01*
X18630Y2030D01*
X18653Y2041D01*
X18674Y2054D01*
X18694Y2068D01*
X18711Y2084D01*
Y1616D01*
D02*
G37*
G36*
X18206Y2068D02*
X18226Y2054D01*
X18247Y2041D01*
X18270Y2030D01*
X18296Y2021D01*
X18323Y2013D01*
X18352Y2008D01*
X18382Y2003D01*
X18415Y2001D01*
X18450Y2000D01*
Y1700D01*
X18415Y1699D01*
X18382Y1697D01*
X18352Y1692D01*
X18323Y1687D01*
X18296Y1679D01*
X18270Y1670D01*
X18247Y1659D01*
X18226Y1646D01*
X18206Y1632D01*
X18189Y1616D01*
Y2084D01*
X18206Y2068D01*
D02*
G37*
G36*
X17711Y1616D02*
X17694Y1632D01*
X17674Y1646D01*
X17653Y1659D01*
X17630Y1670D01*
X17604Y1679D01*
X17577Y1687D01*
X17548Y1692D01*
X17518Y1697D01*
X17485Y1699D01*
X17450Y1700D01*
Y2000D01*
X17485Y2001D01*
X17518Y2003D01*
X17548Y2008D01*
X17577Y2013D01*
X17604Y2021D01*
X17630Y2030D01*
X17653Y2041D01*
X17674Y2054D01*
X17694Y2068D01*
X17711Y2084D01*
Y1616D01*
D02*
G37*
G36*
X17206Y2068D02*
X17226Y2054D01*
X17247Y2041D01*
X17270Y2030D01*
X17296Y2021D01*
X17323Y2013D01*
X17352Y2008D01*
X17382Y2003D01*
X17415Y2001D01*
X17450Y2000D01*
Y1700D01*
X17415Y1699D01*
X17382Y1697D01*
X17352Y1692D01*
X17323Y1687D01*
X17296Y1679D01*
X17270Y1670D01*
X17247Y1659D01*
X17226Y1646D01*
X17206Y1632D01*
X17189Y1616D01*
Y2084D01*
X17206Y2068D01*
D02*
G37*
G36*
X16711Y1616D02*
X16694Y1632D01*
X16674Y1646D01*
X16653Y1659D01*
X16630Y1670D01*
X16604Y1679D01*
X16577Y1687D01*
X16548Y1692D01*
X16518Y1697D01*
X16485Y1699D01*
X16450Y1700D01*
Y2000D01*
X16485Y2001D01*
X16518Y2003D01*
X16548Y2008D01*
X16577Y2013D01*
X16604Y2021D01*
X16630Y2030D01*
X16653Y2041D01*
X16674Y2054D01*
X16694Y2068D01*
X16711Y2084D01*
Y1616D01*
D02*
G37*
G36*
X16206Y2068D02*
X16226Y2054D01*
X16247Y2041D01*
X16270Y2030D01*
X16296Y2021D01*
X16323Y2013D01*
X16352Y2008D01*
X16382Y2003D01*
X16415Y2001D01*
X16450Y2000D01*
Y1700D01*
X16415Y1699D01*
X16382Y1697D01*
X16352Y1692D01*
X16323Y1687D01*
X16296Y1679D01*
X16270Y1670D01*
X16247Y1659D01*
X16226Y1646D01*
X16206Y1632D01*
X16189Y1616D01*
Y2084D01*
X16206Y2068D01*
D02*
G37*
G36*
X6352Y1859D02*
X6357Y1834D01*
X6367Y1808D01*
X6379Y1781D01*
X6396Y1752D01*
X6416Y1723D01*
X6440Y1691D01*
X6499Y1624D01*
X6534Y1589D01*
X6066D01*
X6101Y1624D01*
X6160Y1691D01*
X6184Y1723D01*
X6204Y1752D01*
X6221Y1781D01*
X6233Y1808D01*
X6243Y1834D01*
X6248Y1859D01*
X6250Y1882D01*
X6350D01*
X6352Y1859D01*
D02*
G37*
G36*
X5352D02*
X5357Y1834D01*
X5367Y1808D01*
X5379Y1781D01*
X5396Y1752D01*
X5416Y1723D01*
X5440Y1691D01*
X5499Y1624D01*
X5534Y1589D01*
X5066D01*
X5101Y1624D01*
X5160Y1691D01*
X5184Y1723D01*
X5204Y1752D01*
X5221Y1781D01*
X5233Y1808D01*
X5243Y1834D01*
X5248Y1859D01*
X5250Y1882D01*
X5350D01*
X5352Y1859D01*
D02*
G37*
G36*
X12979Y1117D02*
X12967Y1125D01*
X12953Y1129D01*
X12937D01*
X12919Y1125D01*
X12899Y1117D01*
X12877Y1104D01*
X12852Y1087D01*
X12826Y1066D01*
X12767Y1010D01*
X12660Y1117D01*
X12690Y1147D01*
X12737Y1202D01*
X12754Y1227D01*
X12767Y1249D01*
X12775Y1269D01*
X12779Y1287D01*
Y1303D01*
X12775Y1317D01*
X12767Y1329D01*
X12979Y1117D01*
D02*
G37*
G36*
X7179Y1017D02*
X7167Y1025D01*
X7153Y1029D01*
X7137D01*
X7119Y1025D01*
X7099Y1017D01*
X7077Y1004D01*
X7052Y987D01*
X7026Y966D01*
X6967Y910D01*
X6860Y1017D01*
X6890Y1047D01*
X6937Y1102D01*
X6954Y1127D01*
X6967Y1149D01*
X6975Y1169D01*
X6979Y1187D01*
Y1203D01*
X6975Y1217D01*
X6967Y1229D01*
X7179Y1017D01*
D02*
G37*
G36*
X7625Y1217D02*
X7621Y1203D01*
Y1187D01*
X7625Y1169D01*
X7633Y1149D01*
X7646Y1127D01*
X7663Y1102D01*
X7684Y1076D01*
X7740Y1017D01*
X7633Y910D01*
X7603Y940D01*
X7548Y987D01*
X7523Y1004D01*
X7501Y1017D01*
X7481Y1025D01*
X7463Y1029D01*
X7447D01*
X7433Y1025D01*
X7421Y1017D01*
X7633Y1229D01*
X7625Y1217D01*
D02*
G37*
D13*
X6300Y1350D02*
Y3335D01*
X5300Y1350D02*
Y2100D01*
X5450Y2250D01*
Y3335D01*
D17*
X12150Y4165D02*
D03*
Y3435D02*
D03*
X11150Y4165D02*
D03*
Y3435D02*
D03*
X6250Y4065D02*
D03*
Y3335D02*
D03*
X5450Y4065D02*
D03*
Y3335D02*
D03*
X15050Y22465D02*
D03*
Y21735D02*
D03*
X3350Y18965D02*
D03*
Y18235D02*
D03*
X15850Y21735D02*
D03*
Y22465D02*
D03*
X4250Y18220D02*
D03*
Y18950D02*
D03*
X17050Y27685D02*
D03*
Y28415D02*
D03*
X18100Y27685D02*
D03*
Y28415D02*
D03*
D18*
X23785Y11700D02*
D03*
X24515D02*
D03*
X23785Y12700D02*
D03*
X24515D02*
D03*
X23835Y6150D02*
D03*
X24565D02*
D03*
X23835Y7300D02*
D03*
X24565D02*
D03*
X3715Y9100D02*
D03*
X2985D02*
D03*
X3715Y8100D02*
D03*
X2985D02*
D03*
X23820Y18050D02*
D03*
X24550D02*
D03*
X23835Y17050D02*
D03*
X24565D02*
D03*
X14080Y29546D02*
D03*
X13350D02*
D03*
X7865Y12000D02*
D03*
X7135D02*
D03*
D19*
X22750Y25350D02*
D03*
X22060D02*
D03*
Y24450D02*
D03*
X22750D02*
D03*
X13375Y30345D02*
D03*
X14065D02*
D03*
X7760Y19050D02*
D03*
X8450D02*
D03*
D20*
X4660Y20640D02*
D03*
X5147Y20153D02*
D03*
X10390Y23510D02*
D03*
X9903Y23997D02*
D03*
D21*
X6317Y20486D02*
D03*
X6514D02*
D03*
X6711D02*
D03*
X6908D02*
D03*
X7105D02*
D03*
X7302D02*
D03*
X7498D02*
D03*
X7695D02*
D03*
X7892D02*
D03*
X8089D02*
D03*
X8286D02*
D03*
X8483D02*
D03*
Y23804D02*
D03*
X8286D02*
D03*
X8089D02*
D03*
X7892D02*
D03*
X7695D02*
D03*
X7498D02*
D03*
X7302D02*
D03*
X7105D02*
D03*
X6908D02*
D03*
X6711D02*
D03*
X6514D02*
D03*
X6317D02*
D03*
D22*
X9064Y21067D02*
D03*
Y21264D02*
D03*
Y21461D02*
D03*
Y21658D02*
D03*
Y21855D02*
D03*
Y22052D02*
D03*
Y22248D02*
D03*
Y22445D02*
D03*
Y22642D02*
D03*
Y22839D02*
D03*
Y23036D02*
D03*
Y23233D02*
D03*
X5736D02*
D03*
Y23036D02*
D03*
Y22839D02*
D03*
Y22642D02*
D03*
Y22445D02*
D03*
Y22248D02*
D03*
Y22052D02*
D03*
Y21855D02*
D03*
Y21658D02*
D03*
Y21461D02*
D03*
Y21264D02*
D03*
Y21067D02*
D03*
D23*
X21600Y21944D02*
D03*
Y22850D02*
D03*
Y23756D02*
D03*
D24*
X19200Y22850D02*
D03*
D25*
X9000Y11360D02*
D03*
Y12050D02*
D03*
X5850Y11310D02*
D03*
Y12000D02*
D03*
X17700Y22960D02*
D03*
Y23650D02*
D03*
D26*
X18381Y25400D02*
D03*
X16019D02*
D03*
D27*
X19900Y20350D02*
D03*
X20800D02*
D03*
X20850Y25350D02*
D03*
X19950D02*
D03*
D28*
X25687Y26690D02*
D03*
X25687Y23146D02*
D03*
D29*
X5940Y25040D02*
D03*
X5453Y24553D02*
D03*
D51*
X11750Y5800D02*
Y18150D01*
X11150Y5200D02*
X11750Y5800D01*
X12150Y4165D02*
Y6350D01*
X8345Y13700D02*
Y13955D01*
X6600Y15700D02*
X8345Y13955D01*
X6600Y15700D02*
Y18152D01*
X7302Y18854D02*
Y20486D01*
X6600Y18152D02*
X7302Y18854D01*
X7085Y12000D02*
X7135Y12050D01*
X7105Y18855D02*
Y20486D01*
X6455Y18205D02*
X7105Y18855D01*
X6455Y13700D02*
Y18205D01*
X3765Y9050D02*
X3865Y9150D01*
X4752Y22052D02*
X5736D01*
X4739Y22039D02*
X4752Y22052D01*
X4464Y22264D02*
X5721D01*
X4250Y22050D02*
X4464Y22264D01*
X5721D02*
X5736Y22248D01*
X8450Y19050D02*
Y19200D01*
X7892Y19758D02*
X8450Y19200D01*
X7892Y19758D02*
Y20486D01*
X7695Y19115D02*
Y20486D01*
Y19115D02*
X7760Y19050D01*
X5727Y21255D02*
X5736Y21264D01*
X5274Y21255D02*
X5727D01*
X4660Y20640D02*
X5274Y21255D01*
X4660Y20640D02*
X4660D01*
X5736Y20741D02*
Y21067D01*
X5147Y20153D02*
X5736Y20741D01*
X5147Y20153D02*
Y20153D01*
X5940Y25040D02*
Y25040D01*
Y25040D02*
X6514Y24467D01*
Y23804D02*
Y24467D01*
X9064Y23036D02*
X9917D01*
X10390Y23510D01*
X10390D01*
X9847Y23997D02*
X9903D01*
X9384Y23533D02*
X9847Y23997D01*
X9064Y23233D02*
X9361D01*
X9384Y23255D01*
Y23533D01*
X850Y19650D02*
X2661Y21461D01*
X1858Y21658D02*
X5736D01*
X850Y20650D02*
X1858Y21658D01*
X850Y21650D02*
X1645Y22445D01*
X850Y22609D02*
X5703D01*
X3211Y22839D02*
X5736D01*
X2400Y23650D02*
X3211Y22839D01*
X850Y23650D02*
X2400D01*
X3247Y23003D02*
X5703D01*
X850Y24650D02*
X1600D01*
X3247Y23003D01*
X6706Y23810D02*
X6711Y23804D01*
X6706Y23810D02*
Y25094D01*
X6700Y25100D02*
X6706Y25094D01*
X11150Y4165D02*
Y5200D01*
X12150Y18300D02*
X12150Y6350D01*
X11850Y18600D02*
X12150Y18300D01*
X11600Y18600D02*
X11850D01*
X12550Y22750D02*
X13000D01*
X12100Y23200D02*
X12550Y22750D01*
X11450Y23200D02*
X12100D01*
X11089Y22839D02*
X11450Y23200D01*
X11050Y22000D02*
X15000Y18050D01*
X20550D01*
X9064Y22445D02*
X15030D01*
X9064Y22642D02*
X11292D01*
X10098Y22052D02*
X18650Y13500D01*
X9064Y22052D02*
X10098D01*
X9064Y22248D02*
X10302D01*
X9845Y21855D02*
X18300Y13400D01*
X9064Y21855D02*
X9845D01*
X23670Y18050D02*
X23745Y17975D01*
X9064Y22839D02*
X11089D01*
X11400Y22750D02*
X11600D01*
X11292Y22642D02*
X11400Y22750D01*
X5450Y4065D02*
Y5650D01*
X7100D02*
X10490Y9040D01*
X6250Y4065D02*
X6250Y5700D01*
X10350Y9800D01*
Y19350D01*
X10490Y9040D02*
Y19460D01*
X9214Y20486D02*
X10350Y19350D01*
X8483Y20486D02*
X9214D01*
X9064Y20886D02*
X10490Y19460D01*
X9300Y19500D02*
X9900Y18900D01*
X16950Y2850D02*
Y11850D01*
X8690Y19500D02*
X9300D01*
X8690Y19360D02*
X9450Y18600D01*
X15950Y2850D02*
Y12100D01*
X8540Y19360D02*
X8690D01*
X9064Y20886D02*
Y21067D01*
X23785Y7250D02*
X23835Y7300D01*
X20250Y7250D02*
X23785D01*
Y6200D02*
X23835Y6150D01*
X21400Y6200D02*
X23785D01*
X18950Y6050D02*
Y13600D01*
Y6050D02*
X20950Y4050D01*
X18650Y5400D02*
Y13500D01*
Y5400D02*
X19950Y4100D01*
X18300Y4600D02*
Y13400D01*
Y4600D02*
X18950Y3950D01*
X17950Y2850D02*
Y13400D01*
X9692Y21658D02*
X17950Y13400D01*
X7300Y21350D02*
X7498Y21152D01*
Y20486D02*
Y21152D01*
X7105Y21795D02*
Y23804D01*
X7750Y22600D02*
Y23093D01*
X7892Y23235D02*
Y23804D01*
X7750Y23093D02*
X7892Y23235D01*
X22200Y11700D02*
X23785D01*
X20350Y12700D02*
X23785D01*
X7302Y22148D02*
X7900Y21550D01*
Y21200D02*
Y21550D01*
X7302Y22148D02*
Y23804D01*
X7950Y22800D02*
X8150Y22600D01*
X7800Y22000D02*
X8200D01*
X7498Y22302D02*
X7800Y22000D01*
X7498Y22302D02*
Y23804D01*
X7950Y22800D02*
Y23069D01*
X8089Y23208D02*
Y23804D01*
X7950Y23069D02*
X8089Y23208D01*
X23785Y17000D02*
X23835Y17050D01*
X22150Y17000D02*
X23785D01*
X20550Y18050D02*
X23670D01*
X23745Y17975D02*
X23820Y18050D01*
X8286Y23014D02*
X8300Y23000D01*
X8286Y23014D02*
Y23804D01*
X9550Y26850D02*
X16700D01*
X7695Y24995D02*
X9550Y26850D01*
X7695Y23804D02*
Y24995D01*
X10710Y26710D02*
X17710D01*
X8483Y24483D02*
X10710Y26710D01*
X8483Y23804D02*
Y24483D01*
X18100Y27100D02*
Y27685D01*
X17710Y26710D02*
X18100Y27100D01*
X17050Y27200D02*
Y27685D01*
X16700Y26850D02*
X17050Y27200D01*
X18100Y28315D02*
Y30300D01*
X17100Y28365D02*
Y30300D01*
X17050Y28315D02*
X17100Y28365D01*
X14065Y29561D02*
Y30345D01*
Y29561D02*
X14080Y29546D01*
X24515Y12700D02*
X26500D01*
X24565Y16950D02*
X24665Y17050D01*
X26450D01*
X24550Y18050D02*
X26450D01*
X15050Y22465D02*
X15850D01*
X15030Y22445D02*
X15050Y22465D01*
X10302Y22248D02*
X18950Y13600D01*
X8286Y19904D02*
X8690Y19500D01*
X8089Y19811D02*
X8540Y19360D01*
X20950Y2850D02*
Y4050D01*
X19950Y2850D02*
Y4100D01*
X18950Y2850D02*
Y3950D01*
X9064Y21658D02*
X9692D01*
X8286Y19904D02*
Y20486D01*
X8089Y19811D02*
Y20486D01*
X3715Y8100D02*
X6600D01*
X3865Y9150D02*
X6550D01*
X3715Y9100D02*
X3765Y9050D01*
X24515Y11700D02*
X26500D01*
X24565Y6150D02*
X24665Y6250D01*
X26450D01*
X24565Y7300D02*
X24615Y7250D01*
X26450D01*
X12100Y3385D02*
X12150Y3435D01*
X12100Y1450D02*
Y3385D01*
X11100D02*
X11150Y3435D01*
X11100Y1450D02*
Y3385D01*
X1200Y8100D02*
X2935D01*
X2985Y8050D01*
X1200Y9100D02*
X2935D01*
X2985Y9050D01*
X9000Y12050D02*
Y12600D01*
X8345Y13255D02*
X9000Y12600D01*
X8345Y13255D02*
Y13700D01*
X7865Y12000D02*
X8950D01*
X9000Y12050D01*
X5850Y12000D02*
X7085D01*
X5850D02*
Y12600D01*
X6455Y13205D01*
Y13700D01*
X4650Y23800D02*
X5217Y23233D01*
X5736D01*
X3365Y18950D02*
X4250D01*
X3350Y18965D02*
X3365Y18950D01*
X4250D02*
X5300D01*
X5736Y21855D02*
X6495D01*
X4050Y22050D02*
X4250D01*
X2661Y21461D02*
X5736D01*
X1645Y22445D02*
X5736D01*
X5703Y22609D02*
X5736Y22642D01*
X5703Y23003D02*
X5736Y23036D01*
D52*
X12850Y25400D02*
X16019D01*
D53*
X17000Y22700D02*
X18000D01*
X23800Y23850D02*
Y29050D01*
X26450Y8250D02*
X27200Y7500D01*
Y4559D02*
Y7500D01*
X24491Y1850D02*
X27200Y4559D01*
X20950Y1850D02*
X24491D01*
X19950D02*
X20950D01*
X18950D02*
X19950D01*
X17950D02*
X18950D01*
X16950D02*
X17950D01*
X15950D02*
X16950D01*
X26500Y13700D02*
X27150Y13050D01*
Y8950D02*
Y13050D01*
X26450Y8250D02*
X27150Y8950D01*
X26450Y19050D02*
X27190Y18310D01*
Y14390D02*
Y18310D01*
X26500Y13700D02*
X27190Y14390D01*
X26850Y20828D02*
Y22205D01*
X26450Y20428D02*
X26850Y20828D01*
X26450Y19050D02*
Y20428D01*
X6650Y30350D02*
X7450Y31150D01*
X15250D01*
X16100Y30300D01*
X16900Y31100D01*
X21750D01*
X23800Y29050D01*
X23587Y23645D02*
Y29045D01*
X19200Y20850D02*
Y22850D01*
Y20550D02*
Y20850D01*
X15050Y21250D02*
X15450Y20850D01*
X19200D01*
X15050Y21250D02*
Y21735D01*
X19876Y20374D02*
X19900Y20350D01*
X19376Y20374D02*
X19876D01*
X19200Y20550D02*
X19376Y20374D01*
X16019Y23681D02*
X17000Y22700D01*
X16019Y23681D02*
Y25400D01*
D54*
X8450Y18400D02*
Y19050D01*
X6900Y16850D02*
X8450Y18400D01*
X3350Y17100D02*
Y18235D01*
Y15000D02*
Y17100D01*
X6000D01*
X12000Y350D02*
X13100Y1450D01*
X8300Y350D02*
X12000D01*
X7300Y1350D02*
X8300Y350D01*
X6400Y450D02*
X7300Y1350D01*
X4100Y450D02*
X6400D01*
X1200Y3350D02*
X4100Y450D01*
X1200Y3350D02*
Y7100D01*
X350Y7950D02*
X1200Y7100D01*
X350Y7950D02*
Y12000D01*
X3350Y15000D01*
X2700Y20200D02*
X3400D01*
X2400D02*
X2700D01*
X3315Y18200D02*
X3350Y18235D01*
X2900Y18200D02*
X3315D01*
X2700Y18400D02*
X2900Y18200D01*
X2700Y18400D02*
Y20200D01*
X850Y18650D02*
X2400Y20200D01*
X4745Y19750D02*
X5147Y20153D01*
X3650Y19750D02*
X4745D01*
X3400Y20000D02*
X3650Y19750D01*
X3400Y20000D02*
Y20200D01*
X4300Y20274D02*
Y20281D01*
Y26200D02*
X5200Y27100D01*
X4300Y25705D02*
Y26200D01*
Y25705D02*
X5453Y24553D01*
X5922Y24083D01*
X6301D01*
X5200Y27100D02*
X7700D01*
X7900Y26900D01*
X9903Y23997D02*
X11155Y25250D01*
X12500D01*
X13350Y28950D02*
Y29546D01*
X7760Y18460D02*
Y19050D01*
X4250Y18220D02*
X4880D01*
X4300Y20281D02*
X4660Y20640D01*
X5500Y25600D02*
X5947Y25153D01*
X5940Y25040D02*
X5947Y25047D01*
Y25153D01*
X10390Y23510D02*
X10881Y24000D01*
X12501Y30345D02*
X13375D01*
X12155Y30000D02*
X12501Y30345D01*
X11930Y30000D02*
X12155D01*
X15850Y21735D02*
X16485D01*
X17300Y24400D02*
X17700Y24000D01*
Y23650D02*
Y24000D01*
X22750Y25350D02*
Y25900D01*
Y24450D02*
Y25350D01*
X21600Y21944D02*
X22706D01*
X20800Y20350D02*
X21650D01*
X8250Y10600D02*
X8265D01*
X9000Y11335D02*
Y11360D01*
X8265Y10600D02*
X9000Y11335D01*
X5850Y11285D02*
Y11310D01*
Y11285D02*
X6535Y10600D01*
D55*
X26233Y20820D02*
D03*
D56*
X3525Y20325D02*
D03*
D57*
X4150Y25950D02*
D03*
D58*
X8275Y27125D02*
D03*
D59*
X12750Y25425D02*
D03*
D60*
X23900Y23500D02*
D03*
D61*
X23350Y23850D02*
D03*
D62*
X20625Y22900D02*
D03*
D63*
X18450Y22700D02*
D03*
D64*
X21750Y24000D02*
D03*
D65*
X22025Y24875D02*
D03*
D66*
X21450Y25375D02*
D03*
D67*
X19025D02*
D03*
D68*
X13100Y1450D02*
D03*
X7300D02*
D03*
X20950Y2850D02*
D03*
X19950D02*
D03*
X18950D02*
D03*
X17950D02*
D03*
X16950D02*
D03*
X15950D02*
D03*
X3650Y30350D02*
D03*
X16100Y30300D02*
D03*
X850Y24650D02*
D03*
D69*
X12100Y1450D02*
D03*
X11100D02*
D03*
X10100D02*
D03*
X6300D02*
D03*
X5300D02*
D03*
X4300D02*
D03*
X20950Y850D02*
D03*
Y1850D02*
D03*
X19950Y850D02*
D03*
Y1850D02*
D03*
X18950Y850D02*
D03*
Y1850D02*
D03*
X17950Y850D02*
D03*
Y1850D02*
D03*
X16950Y850D02*
D03*
Y1850D02*
D03*
X15950Y850D02*
D03*
Y1850D02*
D03*
X4650Y30350D02*
D03*
X5650D02*
D03*
X6650D02*
D03*
X26500Y12700D02*
D03*
Y11700D02*
D03*
Y10700D02*
D03*
X26450Y18050D02*
D03*
Y17050D02*
D03*
Y16050D02*
D03*
X17100Y30300D02*
D03*
X18100D02*
D03*
X19100D02*
D03*
X850Y19650D02*
D03*
Y20650D02*
D03*
Y21650D02*
D03*
Y22650D02*
D03*
Y23650D02*
D03*
Y18650D02*
D03*
Y17650D02*
D03*
X26450Y7250D02*
D03*
Y6250D02*
D03*
Y5250D02*
D03*
X1200Y8100D02*
D03*
Y9100D02*
D03*
Y10100D02*
D03*
D70*
X21118Y15297D02*
D03*
X21200Y26600D02*
D03*
D71*
X26050Y30200D02*
D03*
Y1500D02*
D03*
X1300Y1250D02*
D03*
Y30200D02*
D03*
D72*
X8345Y13700D02*
D03*
X6455D02*
D03*
D73*
X24687Y27657D02*
D03*
Y27185D02*
D03*
Y26712D02*
D03*
Y25767D02*
D03*
Y26240D02*
D03*
X25337Y27657D02*
D03*
Y27185D02*
D03*
Y26712D02*
D03*
Y25767D02*
D03*
Y26240D02*
D03*
X25987Y27657D02*
D03*
Y27185D02*
D03*
Y26712D02*
D03*
Y25767D02*
D03*
Y26240D02*
D03*
X26637Y27657D02*
D03*
Y27185D02*
D03*
Y26712D02*
D03*
Y25767D02*
D03*
Y26240D02*
D03*
Y22672D02*
D03*
Y22200D02*
D03*
Y23145D02*
D03*
Y23617D02*
D03*
Y24090D02*
D03*
X25987Y22672D02*
D03*
Y22200D02*
D03*
Y23145D02*
D03*
Y23617D02*
D03*
Y24090D02*
D03*
X25337Y22672D02*
D03*
Y22200D02*
D03*
Y23145D02*
D03*
Y23617D02*
D03*
Y24090D02*
D03*
X24687Y22672D02*
D03*
Y22200D02*
D03*
Y23145D02*
D03*
Y23617D02*
D03*
Y24090D02*
D03*
D74*
X9370Y30000D02*
D03*
X11930D02*
D03*
D75*
X26500Y13700D02*
D03*
X26450Y19050D02*
D03*
Y8250D02*
D03*
X1200Y7100D02*
D03*
D76*
X6900Y16850D02*
D03*
X6000Y17100D02*
D03*
X4739Y22039D02*
D03*
X4300Y20274D02*
D03*
X3400Y20200D02*
D03*
X3650Y20400D02*
D03*
X4000Y25850D02*
D03*
Y26100D02*
D03*
X6700Y25100D02*
D03*
X4650Y23800D02*
D03*
X8600Y27400D02*
D03*
Y26900D02*
D03*
X7900D02*
D03*
Y27400D02*
D03*
X13350Y28950D02*
D03*
X12950Y25250D02*
D03*
X12500D02*
D03*
X12950Y25650D02*
D03*
X12500D02*
D03*
X7760Y18460D02*
D03*
X4880Y18220D02*
D03*
X5500Y25600D02*
D03*
X10881Y24000D02*
D03*
X16485Y21735D02*
D03*
X19200Y25150D02*
D03*
Y25600D02*
D03*
X17300Y24400D02*
D03*
X22750Y25900D02*
D03*
X22706Y21944D02*
D03*
X21650Y20350D02*
D03*
X8265Y10600D02*
D03*
X6535D02*
D03*
X11750Y18150D02*
D03*
X13000Y22750D02*
D03*
X11600Y18600D02*
D03*
X11050Y22000D02*
D03*
X11600Y22750D02*
D03*
X5450Y5650D02*
D03*
X7100D02*
D03*
X16950Y11850D02*
D03*
X15950Y12100D02*
D03*
X9900Y18900D02*
D03*
X9450Y18600D02*
D03*
X20250Y7250D02*
D03*
X21400Y6200D02*
D03*
X7300Y21350D02*
D03*
X7105Y21795D02*
D03*
X7750Y22600D02*
D03*
X22200Y11700D02*
D03*
X20350Y12700D02*
D03*
X7900Y21200D02*
D03*
X8150Y22600D02*
D03*
X8200Y22000D02*
D03*
X20550Y18050D02*
D03*
X22150Y17000D02*
D03*
X8293Y23007D02*
D03*
X6550Y9150D02*
D03*
X6600Y8100D02*
D03*
X5300Y18950D02*
D03*
X6495Y21855D02*
D03*
X4050Y22050D02*
D03*
M02*
