G04*
G04 #@! TF.GenerationSoftware,Altium Limited,Altium Designer,20.0.2 (26)*
G04*
G04 Layer_Color=16711935*
%FSLAX24Y24*%
%MOIN*%
G70*
G01*
G75*
%ADD80C,0.0059*%
%ADD81C,0.0039*%
%ADD82C,0.0004*%
D80*
X6573Y21126D02*
G03*
X6573Y21126I-197J0D01*
G01*
X6022Y20772D02*
X8778D01*
X6022Y23528D02*
X8778D01*
X6022Y20772D02*
Y23528D01*
X8778Y20772D02*
Y23528D01*
D81*
X20898Y21852D02*
G03*
X20898Y21852I-98J0D01*
G01*
X21089Y21570D02*
Y24130D01*
X19711Y21570D02*
Y24130D01*
Y21570D02*
X21089D01*
X19711Y24130D02*
X21089D01*
D82*
X22095Y25505D02*
X22725D01*
Y25190D02*
Y25505D01*
X22095Y25190D02*
X22725D01*
X22095D02*
Y25505D01*
X22085Y24295D02*
X22715D01*
X22085D02*
Y24610D01*
X22715D01*
Y24295D02*
Y24610D01*
X13400Y30190D02*
X14030D01*
X13400D02*
Y30505D01*
X14030D01*
Y30190D02*
Y30505D01*
X4568Y20513D02*
X5013Y20068D01*
X4568Y20513D02*
X4790Y20736D01*
X5236Y20290D01*
X5013Y20068D02*
X5236Y20290D01*
X7785Y18895D02*
X8415D01*
X7785D02*
Y19210D01*
X8415D01*
Y18895D02*
Y19210D01*
X9155Y11385D02*
Y12015D01*
X8840Y11385D02*
X9155D01*
X8840D02*
Y12015D01*
X9155D01*
X6005Y11335D02*
Y11965D01*
X5690Y11335D02*
X6005D01*
X5690D02*
Y11965D01*
X6005D01*
X17855Y22985D02*
Y23615D01*
X17540Y22985D02*
X17855D01*
X17540D02*
Y23615D01*
X17855D01*
X5368Y24687D02*
X5813Y25132D01*
X6036Y24910D01*
X5590Y24464D02*
X6036Y24910D01*
X5368Y24687D02*
X5590Y24464D01*
X10037Y24082D02*
X10482Y23637D01*
X10260Y23414D02*
X10482Y23637D01*
X9814Y23860D02*
X10260Y23414D01*
X9814Y23860D02*
X10037Y24082D01*
M02*
