G04*
G04 #@! TF.GenerationSoftware,Altium Limited,Altium Designer,20.0.2 (26)*
G04*
G04 Layer_Color=255*
%FSLAX24Y24*%
%MOIN*%
G70*
G01*
G75*
%ADD17R,0.0315X0.0400*%
%ADD18R,0.0400X0.0315*%
%ADD19R,0.0350X0.0300*%
G04:AMPARAMS|DCode=20|XSize=35mil|YSize=30mil|CornerRadius=0mil|HoleSize=0mil|Usage=FLASHONLY|Rotation=135.000|XOffset=0mil|YOffset=0mil|HoleType=Round|Shape=Rectangle|*
%AMROTATEDRECTD20*
4,1,4,0.0230,-0.0018,0.0018,-0.0230,-0.0230,0.0018,-0.0018,0.0230,0.0230,-0.0018,0.0*
%
%ADD20ROTATEDRECTD20*%

%ADD21O,0.0118X0.0827*%
%ADD22O,0.0827X0.0118*%
%ADD23R,0.0669X0.0295*%
%ADD24R,0.0669X0.1220*%
%ADD25R,0.0300X0.0350*%
%ADD26R,0.0866X0.0866*%
%ADD27R,0.0500X0.0500*%
%ADD28R,0.2600X0.2362*%
G04:AMPARAMS|DCode=29|XSize=35mil|YSize=30mil|CornerRadius=0mil|HoleSize=0mil|Usage=FLASHONLY|Rotation=45.000|XOffset=0mil|YOffset=0mil|HoleType=Round|Shape=Rectangle|*
%AMROTATEDRECTD29*
4,1,4,-0.0018,-0.0230,-0.0230,-0.0018,0.0018,0.0230,0.0230,0.0018,-0.0018,-0.0230,0.0*
%
%ADD29ROTATEDRECTD29*%

%ADD68R,0.0669X0.0669*%
%ADD69C,0.0669*%
%ADD70C,0.1378*%
%ADD71C,0.1575*%
%ADD72C,0.0591*%
%ADD73C,0.0236*%
%ADD74C,0.0984*%
%ADD75R,0.0669X0.0669*%
D17*
X12150Y4165D02*
D03*
Y3435D02*
D03*
X11150Y4165D02*
D03*
Y3435D02*
D03*
X6250Y4065D02*
D03*
Y3335D02*
D03*
X5450Y4065D02*
D03*
Y3335D02*
D03*
X15050Y22465D02*
D03*
Y21735D02*
D03*
X3350Y18965D02*
D03*
Y18235D02*
D03*
X15850Y21735D02*
D03*
Y22465D02*
D03*
X4250Y18220D02*
D03*
Y18950D02*
D03*
X17050Y27685D02*
D03*
Y28415D02*
D03*
X18100Y27685D02*
D03*
Y28415D02*
D03*
D18*
X23785Y11700D02*
D03*
X24515D02*
D03*
X23785Y12700D02*
D03*
X24515D02*
D03*
X23835Y6150D02*
D03*
X24565D02*
D03*
X23835Y7300D02*
D03*
X24565D02*
D03*
X3715Y9100D02*
D03*
X2985D02*
D03*
X3715Y8100D02*
D03*
X2985D02*
D03*
X23820Y18050D02*
D03*
X24550D02*
D03*
X23835Y17050D02*
D03*
X24565D02*
D03*
X14080Y29546D02*
D03*
X13350D02*
D03*
X7865Y12000D02*
D03*
X7135D02*
D03*
D19*
X22750Y25350D02*
D03*
X22060D02*
D03*
Y24450D02*
D03*
X22750D02*
D03*
X13375Y30345D02*
D03*
X14065D02*
D03*
X7760Y19050D02*
D03*
X8450D02*
D03*
D20*
X4660Y20640D02*
D03*
X5147Y20153D02*
D03*
X10390Y23510D02*
D03*
X9903Y23997D02*
D03*
D21*
X6317Y20486D02*
D03*
X6514D02*
D03*
X6711D02*
D03*
X6908D02*
D03*
X7105D02*
D03*
X7302D02*
D03*
X7498D02*
D03*
X7695D02*
D03*
X7892D02*
D03*
X8089D02*
D03*
X8286D02*
D03*
X8483D02*
D03*
Y23804D02*
D03*
X8286D02*
D03*
X8089D02*
D03*
X7892D02*
D03*
X7695D02*
D03*
X7498D02*
D03*
X7302D02*
D03*
X7105D02*
D03*
X6908D02*
D03*
X6711D02*
D03*
X6514D02*
D03*
X6317D02*
D03*
D22*
X9064Y21067D02*
D03*
Y21264D02*
D03*
Y21461D02*
D03*
Y21658D02*
D03*
Y21855D02*
D03*
Y22052D02*
D03*
Y22248D02*
D03*
Y22445D02*
D03*
Y22642D02*
D03*
Y22839D02*
D03*
Y23036D02*
D03*
Y23233D02*
D03*
X5736D02*
D03*
Y23036D02*
D03*
Y22839D02*
D03*
Y22642D02*
D03*
Y22445D02*
D03*
Y22248D02*
D03*
Y22052D02*
D03*
Y21855D02*
D03*
Y21658D02*
D03*
Y21461D02*
D03*
Y21264D02*
D03*
Y21067D02*
D03*
D23*
X21600Y21944D02*
D03*
Y22850D02*
D03*
Y23756D02*
D03*
D24*
X19200Y22850D02*
D03*
D25*
X9000Y11360D02*
D03*
Y12050D02*
D03*
X5850Y11310D02*
D03*
Y12000D02*
D03*
X17700Y22960D02*
D03*
Y23650D02*
D03*
D26*
X18381Y25400D02*
D03*
X16019D02*
D03*
D27*
X19900Y20350D02*
D03*
X20800D02*
D03*
X20850Y25350D02*
D03*
X19950D02*
D03*
D28*
X25687Y26690D02*
D03*
X25687Y23146D02*
D03*
D29*
X5940Y25040D02*
D03*
X5453Y24553D02*
D03*
D68*
X13100Y1450D02*
D03*
X7300D02*
D03*
X20950Y2850D02*
D03*
X19950D02*
D03*
X18950D02*
D03*
X17950D02*
D03*
X16950D02*
D03*
X15950D02*
D03*
X3650Y30350D02*
D03*
X16100Y30300D02*
D03*
X850Y24650D02*
D03*
D69*
X12100Y1450D02*
D03*
X11100D02*
D03*
X10100D02*
D03*
X6300D02*
D03*
X5300D02*
D03*
X4300D02*
D03*
X20950Y850D02*
D03*
Y1850D02*
D03*
X19950Y850D02*
D03*
Y1850D02*
D03*
X18950Y850D02*
D03*
Y1850D02*
D03*
X17950Y850D02*
D03*
Y1850D02*
D03*
X16950Y850D02*
D03*
Y1850D02*
D03*
X15950Y850D02*
D03*
Y1850D02*
D03*
X4650Y30350D02*
D03*
X5650D02*
D03*
X6650D02*
D03*
X26500Y12700D02*
D03*
Y11700D02*
D03*
Y10700D02*
D03*
X26450Y18050D02*
D03*
Y17050D02*
D03*
Y16050D02*
D03*
X17100Y30300D02*
D03*
X18100D02*
D03*
X19100D02*
D03*
X850Y19650D02*
D03*
Y20650D02*
D03*
Y21650D02*
D03*
Y22650D02*
D03*
Y23650D02*
D03*
Y18650D02*
D03*
Y17650D02*
D03*
X26450Y7250D02*
D03*
Y6250D02*
D03*
Y5250D02*
D03*
X1200Y8100D02*
D03*
Y9100D02*
D03*
Y10100D02*
D03*
D70*
X21118Y15297D02*
D03*
X21200Y26600D02*
D03*
D71*
X26050Y30200D02*
D03*
Y1500D02*
D03*
X1300Y1250D02*
D03*
Y30200D02*
D03*
D72*
X8345Y13700D02*
D03*
X6455D02*
D03*
D73*
X24687Y27657D02*
D03*
Y27185D02*
D03*
Y26712D02*
D03*
Y25767D02*
D03*
Y26240D02*
D03*
X25337Y27657D02*
D03*
Y27185D02*
D03*
Y26712D02*
D03*
Y25767D02*
D03*
Y26240D02*
D03*
X25987Y27657D02*
D03*
Y27185D02*
D03*
Y26712D02*
D03*
Y25767D02*
D03*
Y26240D02*
D03*
X26637Y27657D02*
D03*
Y27185D02*
D03*
Y26712D02*
D03*
Y25767D02*
D03*
Y26240D02*
D03*
Y22672D02*
D03*
Y22200D02*
D03*
Y23145D02*
D03*
Y23617D02*
D03*
Y24090D02*
D03*
X25987Y22672D02*
D03*
Y22200D02*
D03*
Y23145D02*
D03*
Y23617D02*
D03*
Y24090D02*
D03*
X25337Y22672D02*
D03*
Y22200D02*
D03*
Y23145D02*
D03*
Y23617D02*
D03*
Y24090D02*
D03*
X24687Y22672D02*
D03*
Y22200D02*
D03*
Y23145D02*
D03*
Y23617D02*
D03*
Y24090D02*
D03*
D74*
X9370Y30000D02*
D03*
X11930D02*
D03*
D75*
X26500Y13700D02*
D03*
X26450Y19050D02*
D03*
Y8250D02*
D03*
X1200Y7100D02*
D03*
M02*
