M48
;Layer_Color=9474304
;FILE_FORMAT=2:4
INCH,LZ
;TYPE=PLATED
T1F00S00C0.0120
T2F00S00C0.0157
T3F00S00C0.0315
T4F00S00C0.0354
T5F00S00C0.0472
T6F00S00C0.0984
T7F00S00C0.1181
%
T01
X00545Y00565
X0071
X0066Y0081
X02025Y00725
X0214Y0062
X0222Y0117
X02035Y0127
X01695Y01185
X02055Y01805
X02215Y017
X02165Y02035
X022706Y021944
X016485Y021735
X013Y02275
X0116
X01105Y022
X0082
X00815Y0226
X00775
X008293Y023007
X0079Y0212
X0073Y02135
X007105Y021795
X006495Y021855
X004739Y022039
X00405Y02205
X0043Y020274
X00365Y0204
X0034Y0202
X0053Y01895
X00488Y01822
X006Y0171
X0069Y01685
X00776Y01846
X00945Y0186
X0099Y0189
X0116Y0186
X01175Y01815
X01595Y0121
X008265Y0106
X006535
X00655Y00915
X00465Y0238
X0055Y0256
X0067Y0251
X0079Y0269
Y0274
X0086
Y0269
X0125Y02565
Y02525
X01295
Y02565
X01335Y02895
X010881Y024
X004Y02585
Y0261
X0173Y0244
X0192Y02515
Y0256
X02275Y0259
T02
X024687Y0222
Y022672
Y023145
Y023617
X025337
Y023145
Y022672
Y0222
X025987
Y022672
Y023145
Y023617
X026637
Y023145
Y022672
Y0222
Y02409
X025987
X025337
X024687
Y025767
Y02624
Y026712
Y027185
Y027657
X025337
Y027185
Y026712
Y02624
Y025767
X025987
Y02624
Y026712
Y027185
Y027657
X026637
Y027185
Y026712
Y02624
Y025767
T03
X006455Y0137
X008345
T04
X0043Y00145
X0053
X0063
X0073
X0101
X0111
X0121
X0131
X01595Y00185
Y00085
Y00285
X0012Y0071
Y0081
X01695Y00285
X01795
X01895
X01995
X02095
Y00185
Y00085
X01995
Y00185
X01895
Y00085
X01795
Y00185
X01695
Y00085
X02645Y00525
Y00625
Y00725
Y00825
X0265Y0107
Y0117
Y0127
Y0137
X02645Y01605
Y01705
Y01805
Y01905
X00085Y01865
Y01965
Y02065
Y02165
Y02265
Y02365
Y01765
X0012Y0101
Y0091
X00085Y02465
X00365Y03035
X00465
X00565
X00665
X0161Y0303
X0171
X0181
X0191
T05
X00937Y03
X01193
T06
X021118Y015297
X0212Y0266
T07
X0013Y00125
X02605Y0015
X0013Y0302
X02605
M30
