G04*
G04 #@! TF.GenerationSoftware,Altium Limited,Altium Designer,20.0.2 (26)*
G04*
G04 Layer_Color=128*
%FSLAX24Y24*%
%MOIN*%
G70*
G01*
G75*
%ADD85C,0.0020*%
D85*
X12923Y1450D02*
X13277D01*
X13100Y1273D02*
Y1627D01*
X11923Y1450D02*
X12277D01*
X12100Y1273D02*
Y1627D01*
X10923Y1450D02*
X11277D01*
X11100Y1273D02*
Y1627D01*
X9923Y1450D02*
X10277D01*
X10100Y1273D02*
Y1627D01*
X7123Y1450D02*
X7477D01*
X7300Y1273D02*
Y1627D01*
X6123Y1450D02*
X6477D01*
X6300Y1273D02*
Y1627D01*
X5123Y1450D02*
X5477D01*
X5300Y1273D02*
Y1627D01*
X4123Y1450D02*
X4477D01*
X4300Y1273D02*
Y1627D01*
X20773Y850D02*
X21127D01*
X20950Y673D02*
Y1027D01*
X20773Y1850D02*
X21127D01*
X20950Y1673D02*
Y2027D01*
X20773Y2850D02*
X21127D01*
X20950Y2673D02*
Y3027D01*
X19773Y850D02*
X20127D01*
X19950Y673D02*
Y1027D01*
X19773Y1850D02*
X20127D01*
X19950Y1673D02*
Y2027D01*
X19773Y2850D02*
X20127D01*
X19950Y2673D02*
Y3027D01*
X18773Y850D02*
X19127D01*
X18950Y673D02*
Y1027D01*
X18773Y1850D02*
X19127D01*
X18950Y1673D02*
Y2027D01*
X18773Y2850D02*
X19127D01*
X18950Y2673D02*
Y3027D01*
X17773Y850D02*
X18127D01*
X17950Y673D02*
Y1027D01*
X17773Y1850D02*
X18127D01*
X17950Y1673D02*
Y2027D01*
X17773Y2850D02*
X18127D01*
X17950Y2673D02*
Y3027D01*
X16773Y850D02*
X17127D01*
X16950Y673D02*
Y1027D01*
X16773Y1850D02*
X17127D01*
X16950Y1673D02*
Y2027D01*
X16773Y2850D02*
X17127D01*
X16950Y2673D02*
Y3027D01*
X15773Y850D02*
X16127D01*
X15950Y673D02*
Y1027D01*
X15773Y1850D02*
X16127D01*
X15950Y1673D02*
Y2027D01*
X15773Y2850D02*
X16127D01*
X15950Y2673D02*
Y3027D01*
X3473Y30350D02*
X3827D01*
X3650Y30173D02*
Y30527D01*
X4473Y30350D02*
X4827D01*
X4650Y30173D02*
Y30527D01*
X5473Y30350D02*
X5827D01*
X5650Y30173D02*
Y30527D01*
X6473Y30350D02*
X6827D01*
X6650Y30173D02*
Y30527D01*
X20626Y15297D02*
X21610D01*
X21118Y14805D02*
Y15789D01*
X20708Y26600D02*
X21692D01*
X21200Y26108D02*
Y27092D01*
X25459Y30200D02*
X26641D01*
X26050Y29609D02*
Y30791D01*
X25459Y1500D02*
X26641D01*
X26050Y909D02*
Y2091D01*
X709Y1250D02*
X1891D01*
X1300Y659D02*
Y1841D01*
X709Y30200D02*
X1891D01*
X1300Y29609D02*
Y30791D01*
X8187Y13700D02*
X8502D01*
X8345Y13543D02*
Y13857D01*
X6298Y13700D02*
X6613D01*
X6455Y13543D02*
Y13857D01*
X24608Y27657D02*
X24766D01*
X24687Y27578D02*
Y27736D01*
X24608Y27185D02*
X24766D01*
X24687Y27106D02*
Y27263D01*
X24608Y26712D02*
X24766D01*
X24687Y26633D02*
Y26791D01*
X24608Y25767D02*
X24766D01*
X24687Y25689D02*
Y25846D01*
X24608Y26240D02*
X24766D01*
X24687Y26161D02*
Y26319D01*
X25258Y27657D02*
X25416D01*
X25337Y27578D02*
Y27736D01*
X25258Y27185D02*
X25416D01*
X25337Y27106D02*
Y27263D01*
X25258Y26712D02*
X25416D01*
X25337Y26633D02*
Y26791D01*
X25258Y25767D02*
X25416D01*
X25337Y25689D02*
Y25846D01*
X25258Y26240D02*
X25416D01*
X25337Y26161D02*
Y26319D01*
X25908Y27657D02*
X26066D01*
X25987Y27578D02*
Y27736D01*
X25908Y27185D02*
X26066D01*
X25987Y27106D02*
Y27263D01*
X25908Y26712D02*
X26066D01*
X25987Y26633D02*
Y26791D01*
X25908Y25767D02*
X26066D01*
X25987Y25689D02*
Y25846D01*
X25908Y26240D02*
X26066D01*
X25987Y26161D02*
Y26319D01*
X26558Y27657D02*
X26716D01*
X26637Y27578D02*
Y27736D01*
X26558Y27185D02*
X26716D01*
X26637Y27106D02*
Y27263D01*
X26558Y26712D02*
X26716D01*
X26637Y26633D02*
Y26791D01*
X26558Y25767D02*
X26716D01*
X26637Y25689D02*
Y25846D01*
X26558Y26240D02*
X26716D01*
X26637Y26161D02*
Y26319D01*
X26558Y22672D02*
X26716D01*
X26637Y22594D02*
Y22751D01*
X26558Y22200D02*
X26716D01*
X26637Y22121D02*
Y22279D01*
X26558Y23145D02*
X26716D01*
X26637Y23066D02*
Y23224D01*
X26558Y23617D02*
X26716D01*
X26637Y23539D02*
Y23696D01*
X26558Y24090D02*
X26716D01*
X26637Y24011D02*
Y24169D01*
X25908Y22672D02*
X26066D01*
X25987Y22594D02*
Y22751D01*
X25908Y22200D02*
X26066D01*
X25987Y22121D02*
Y22279D01*
X25908Y23145D02*
X26066D01*
X25987Y23066D02*
Y23224D01*
X25908Y23617D02*
X26066D01*
X25987Y23539D02*
Y23696D01*
X25908Y24090D02*
X26066D01*
X25987Y24011D02*
Y24169D01*
X25258Y22672D02*
X25416D01*
X25337Y22594D02*
Y22751D01*
X25258Y22200D02*
X25416D01*
X25337Y22121D02*
Y22279D01*
X25258Y23145D02*
X25416D01*
X25337Y23066D02*
Y23224D01*
X25258Y23617D02*
X25416D01*
X25337Y23539D02*
Y23696D01*
X25258Y24090D02*
X25416D01*
X25337Y24011D02*
Y24169D01*
X24608Y22672D02*
X24766D01*
X24687Y22594D02*
Y22751D01*
X24608Y22200D02*
X24766D01*
X24687Y22121D02*
Y22279D01*
X24608Y23145D02*
X24766D01*
X24687Y23066D02*
Y23224D01*
X24608Y23617D02*
X24766D01*
X24687Y23539D02*
Y23696D01*
X24608Y24090D02*
X24766D01*
X24687Y24011D02*
Y24169D01*
X9134Y30000D02*
X9607D01*
X9370Y29764D02*
Y30236D01*
X11693Y30000D02*
X12166D01*
X11930Y29764D02*
Y30236D01*
X26323Y13700D02*
X26677D01*
X26500Y13523D02*
Y13877D01*
X26323Y12700D02*
X26677D01*
X26500Y12523D02*
Y12877D01*
X26323Y11700D02*
X26677D01*
X26500Y11523D02*
Y11877D01*
X26323Y10700D02*
X26677D01*
X26500Y10523D02*
Y10877D01*
X26273Y19050D02*
X26627D01*
X26450Y18873D02*
Y19227D01*
X26273Y18050D02*
X26627D01*
X26450Y17873D02*
Y18227D01*
X26273Y17050D02*
X26627D01*
X26450Y16873D02*
Y17227D01*
X26273Y16050D02*
X26627D01*
X26450Y15873D02*
Y16227D01*
X15923Y30300D02*
X16277D01*
X16100Y30123D02*
Y30477D01*
X16923Y30300D02*
X17277D01*
X17100Y30123D02*
Y30477D01*
X17923Y30300D02*
X18277D01*
X18100Y30123D02*
Y30477D01*
X18923Y30300D02*
X19277D01*
X19100Y30123D02*
Y30477D01*
X673Y19650D02*
X1027D01*
X850Y19473D02*
Y19827D01*
X673Y20650D02*
X1027D01*
X850Y20473D02*
Y20827D01*
X673Y21650D02*
X1027D01*
X850Y21473D02*
Y21827D01*
X673Y22650D02*
X1027D01*
X850Y22473D02*
Y22827D01*
X673Y23650D02*
X1027D01*
X850Y23473D02*
Y23827D01*
X673Y24650D02*
X1027D01*
X850Y24473D02*
Y24827D01*
X673Y18650D02*
X1027D01*
X850Y18473D02*
Y18827D01*
X673Y17650D02*
X1027D01*
X850Y17473D02*
Y17827D01*
X26273Y8250D02*
X26627D01*
X26450Y8073D02*
Y8427D01*
X26273Y7250D02*
X26627D01*
X26450Y7073D02*
Y7427D01*
X26273Y6250D02*
X26627D01*
X26450Y6073D02*
Y6427D01*
X26273Y5250D02*
X26627D01*
X26450Y5073D02*
Y5427D01*
X1023Y7100D02*
X1377D01*
X1200Y6923D02*
Y7277D01*
X1023Y8100D02*
X1377D01*
X1200Y7923D02*
Y8277D01*
X1023Y9100D02*
X1377D01*
X1200Y8923D02*
Y9277D01*
X1023Y10100D02*
X1377D01*
X1200Y9923D02*
Y10277D01*
X6840Y16850D02*
X6960D01*
X6900Y16790D02*
Y16910D01*
X5940Y17100D02*
X6060D01*
X6000Y17040D02*
Y17160D01*
X4679Y22039D02*
X4799D01*
X4739Y21979D02*
Y22099D01*
X4240Y20274D02*
X4360D01*
X4300Y20214D02*
Y20334D01*
X3340Y20200D02*
X3460D01*
X3400Y20140D02*
Y20260D01*
X3590Y20400D02*
X3710D01*
X3650Y20340D02*
Y20460D01*
X3940Y25850D02*
X4060D01*
X4000Y25790D02*
Y25910D01*
X3940Y26100D02*
X4060D01*
X4000Y26040D02*
Y26160D01*
X6640Y25100D02*
X6760D01*
X6700Y25040D02*
Y25160D01*
X4590Y23800D02*
X4710D01*
X4650Y23740D02*
Y23860D01*
X8540Y27400D02*
X8660D01*
X8600Y27340D02*
Y27460D01*
X8540Y26900D02*
X8660D01*
X8600Y26840D02*
Y26960D01*
X7840Y26900D02*
X7960D01*
X7900Y26840D02*
Y26960D01*
X7840Y27400D02*
X7960D01*
X7900Y27340D02*
Y27460D01*
X13290Y28950D02*
X13410D01*
X13350Y28890D02*
Y29010D01*
X12890Y25250D02*
X13010D01*
X12950Y25190D02*
Y25310D01*
X12440Y25250D02*
X12560D01*
X12500Y25190D02*
Y25310D01*
X12890Y25650D02*
X13010D01*
X12950Y25590D02*
Y25710D01*
X12440Y25650D02*
X12560D01*
X12500Y25590D02*
Y25710D01*
X7700Y18460D02*
X7820D01*
X7760Y18400D02*
Y18520D01*
X4820Y18220D02*
X4940D01*
X4880Y18160D02*
Y18280D01*
X5440Y25600D02*
X5560D01*
X5500Y25540D02*
Y25660D01*
X10821Y24000D02*
X10941D01*
X10881Y23940D02*
Y24060D01*
X16425Y21735D02*
X16545D01*
X16485Y21675D02*
Y21795D01*
X19140Y25150D02*
X19260D01*
X19200Y25090D02*
Y25210D01*
X19140Y25600D02*
X19260D01*
X19200Y25540D02*
Y25660D01*
X17240Y24400D02*
X17360D01*
X17300Y24340D02*
Y24460D01*
X22690Y25900D02*
X22810D01*
X22750Y25840D02*
Y25960D01*
X22646Y21944D02*
X22766D01*
X22706Y21884D02*
Y22004D01*
X21590Y20350D02*
X21710D01*
X21650Y20290D02*
Y20410D01*
X8205Y10600D02*
X8325D01*
X8265Y10540D02*
Y10660D01*
X6475Y10600D02*
X6595D01*
X6535Y10540D02*
Y10660D01*
X11690Y18150D02*
X11810D01*
X11750Y18090D02*
Y18210D01*
X12940Y22750D02*
X13060D01*
X13000Y22690D02*
Y22810D01*
X11540Y18600D02*
X11660D01*
X11600Y18540D02*
Y18660D01*
X10990Y22000D02*
X11110D01*
X11050Y21940D02*
Y22060D01*
X11540Y22750D02*
X11660D01*
X11600Y22690D02*
Y22810D01*
X5390Y5650D02*
X5510D01*
X5450Y5590D02*
Y5710D01*
X7040Y5650D02*
X7160D01*
X7100Y5590D02*
Y5710D01*
X16890Y11850D02*
X17010D01*
X16950Y11790D02*
Y11910D01*
X15890Y12100D02*
X16010D01*
X15950Y12040D02*
Y12160D01*
X9840Y18900D02*
X9960D01*
X9900Y18840D02*
Y18960D01*
X9390Y18600D02*
X9510D01*
X9450Y18540D02*
Y18660D01*
X20190Y7250D02*
X20310D01*
X20250Y7190D02*
Y7310D01*
X21340Y6200D02*
X21460D01*
X21400Y6140D02*
Y6260D01*
X7240Y21350D02*
X7360D01*
X7300Y21290D02*
Y21410D01*
X7045Y21795D02*
X7165D01*
X7105Y21735D02*
Y21855D01*
X7690Y22600D02*
X7810D01*
X7750Y22540D02*
Y22660D01*
X22140Y11700D02*
X22260D01*
X22200Y11640D02*
Y11760D01*
X20290Y12700D02*
X20410D01*
X20350Y12640D02*
Y12760D01*
X7840Y21200D02*
X7960D01*
X7900Y21140D02*
Y21260D01*
X8090Y22600D02*
X8210D01*
X8150Y22540D02*
Y22660D01*
X8140Y22000D02*
X8260D01*
X8200Y21940D02*
Y22060D01*
X20490Y18050D02*
X20610D01*
X20550Y17990D02*
Y18110D01*
X22090Y17000D02*
X22210D01*
X22150Y16940D02*
Y17060D01*
X8233Y23007D02*
X8353D01*
X8293Y22947D02*
Y23067D01*
X6490Y9150D02*
X6610D01*
X6550Y9090D02*
Y9210D01*
X6540Y8100D02*
X6660D01*
X6600Y8040D02*
Y8160D01*
X5240Y18950D02*
X5360D01*
X5300Y18890D02*
Y19010D01*
X6435Y21855D02*
X6555D01*
X6495Y21795D02*
Y21915D01*
X3990Y22050D02*
X4110D01*
X4050Y21990D02*
Y22110D01*
M02*
